<svg width="140" height="59" viewBox="0 0 140 59" fill="none" xmlns="http://www.w3.org/2000/svg">
<g clip-path="url(#clip0_10600_12612)">
<path d="M66.554 34.9526C59.834 37.1896 56.474 33.5545 59.554 29.6398C60.954 27.9621 65.434 24.6067 67.394 28.2417C67.394 28.2417 67.674 28.5213 67.674 29.0806C67.674 29.3602 67.954 29.3602 67.954 29.6398C67.954 29.6398 67.954 29.6398 67.954 29.9194C68.514 31.0379 68.514 32.9953 66.554 34.9526ZM76.634 13.9811C76.074 9.50712 74.674 10.0664 72.714 13.1422C71.034 15.6588 70.474 17.3365 70.754 18.7346C71.034 20.9716 71.314 22.3697 71.314 22.3697C65.994 14.2607 54.514 20.9716 50.594 32.9953C47.234 43.9005 58.994 43.3412 58.994 43.3412C58.994 43.3412 51.994 50.3318 36.874 50.0522C27.914 50.0522 24.554 46.4171 23.434 44.7394C21.754 41.6635 20.634 43.6209 20.914 46.1375C20.914 46.9763 21.194 47.8152 20.914 49.2133C20.634 52.5687 22.874 55.0853 25.394 56.4834C32.954 60.1185 45.554 60.1185 58.154 53.128C67.114 48.0948 74.114 39.9858 76.074 27.9621C76.914 24.8863 77.474 19.2939 76.634 13.9811Z" fill="#DB2777"/>
<path d="M122.555 35.5119C101.835 46.4171 91.1948 37.4693 91.1948 37.4693C99.0348 24.0475 119.195 13.7015 130.675 16.4977C135.995 17.8958 140.475 26.0048 122.555 35.5119ZM139.915 17.8958C139.355 10.346 133.195 7.27022 127.875 6.9906C101.555 6.71098 86.9948 32.1565 86.9948 32.1565C81.3948 26.0048 83.6348 13.1423 84.7548 9.78681C85.8748 6.71098 83.6348 5.31288 82.2348 8.94795C74.9548 27.9622 82.5148 41.6636 82.5148 41.6636C82.5148 41.6636 79.7148 47.8152 79.4348 54.2465C79.4348 57.3224 81.1148 58.7205 83.6348 58.7205C87.2748 58.7205 88.1148 54.5261 86.7148 52.2892C85.5948 50.3318 87.2748 46.4171 87.2748 46.4171C87.2748 46.4171 99.0348 55.9242 120.875 45.2987C134.875 38.3081 140.475 25.4456 139.915 17.8958Z" fill="#DB2777"/>
<path d="M60.3952 9.22749C61.7952 10.0663 62.9152 10.6256 63.4752 10.6256C64.8752 10.9052 65.9952 10.346 66.8352 9.50711C68.5152 7.82938 68.2352 4.47393 65.4352 4.19431C64.5952 4.19431 63.7552 4.19431 63.1952 5.03317C65.4352 3.91469 67.3952 6.15166 66.2752 8.109C65.7152 8.94787 64.8752 9.50711 63.7552 9.22749C61.7952 8.94787 60.6752 6.99052 61.2352 5.3128C61.7952 3.35545 64.0352 2.51659 65.7152 2.79621C69.3552 3.35545 69.3552 7.27014 69.0752 8.109C68.7952 9.50711 67.9552 10.6256 66.8352 11.1848C62.3552 13.1422 60.3952 9.22749 60.3952 9.22749ZM62.9152 13.7014C66.8352 14.2607 70.7552 11.4645 71.0352 7.82938C71.5952 4.47393 69.3552 2.79621 68.5152 2.23697C67.9552 1.95735 67.1152 1.67773 66.2752 1.3981C63.4752 1.11848 60.6752 2.79621 60.1152 5.3128C60.1152 6.15166 60.1152 6.7109 60.3952 7.54977C58.4352 4.19431 61.5152 0.559242 64.0352 0C60.6752 0.279621 57.5952 2.51659 57.0352 5.87204V6.15166C57.0352 6.15166 57.0352 6.15166 57.0352 6.43128C57.0352 6.99052 57.0352 7.82939 57.3152 8.66825C57.8752 11.4645 60.1152 13.4218 62.9152 13.7014Z" fill="#DB2777"/>
<path d="M102.674 6.43122C102.674 9.78667 99.594 12.5829 96.234 12.3033C92.594 12.3033 89.794 9.50705 90.074 6.1516C90.074 2.79615 92.874 -5.86922e-05 96.514 0.279562C100.154 0.279562 102.954 3.07577 102.674 6.43122Z" fill="#DB2777"/>
<path d="M43.3156 8.38863C47.7956 6.7109 50.0356 7.54976 48.3556 9.78673C46.9556 11.4645 39.9556 12.8626 36.8756 11.7441C39.1156 10.0664 41.6356 8.94787 43.3156 8.38863ZM31.2756 15.3791C32.3956 18.7346 38.5556 18.7346 43.3156 19.0142C48.9156 19.0142 53.6756 16.7772 53.6756 12.3033C53.6756 7.82938 50.8756 0 44.7156 0C38.8356 0 29.3156 5.59242 22.8756 12.5829C20.0756 15.3791 18.1156 18.455 16.9956 21.2512C16.4356 22.3697 15.8756 24.0474 15.8756 26.0047C15.8756 28.8009 17.8356 31.3175 24.8356 30.199C41.9156 27.4028 42.1956 29.0806 42.1956 29.0806C42.1956 29.0806 25.6756 40.545 11.6756 36.6303C-0.0843584 33.5545 4.39564 17.3365 13.6356 8.109C16.7156 4.47393 14.7556 3.07583 11.1156 6.15166C7.19564 9.78673 1.31564 15.9384 0.195641 26.2844C-1.48436 41.3839 8.03564 44.7393 14.1956 45.5782C24.8356 46.9763 34.9156 41.3839 38.5556 39.4265C40.7956 38.3081 49.1956 34.1137 48.6356 25.1659C48.3556 20.1327 41.6356 19.8531 31.2756 21.8104C23.9956 22.9289 23.1556 22.3697 23.1556 22.3697C24.2756 20.1327 27.3556 17.6161 31.2756 15.3791Z" fill="#DB2777"/>
</g>
<defs>
<clipPath id="clip0_10600_12612">
<rect width="140" height="59" fill="white"/>
</clipPath>
</defs>
</svg>
