<svg width="209" height="44" viewBox="0 0 209 44" fill="none" xmlns="http://www.w3.org/2000/svg">
<g clip-path="url(#clip0_10600_12609)">
<path d="M132.626 30.3019C132.626 37.0046 129.417 43.2837 121.933 43.2837C119.115 43.2837 117.134 42.318 115.793 40.9834L115.178 43.2837H111.534V10.1665H116.157V30.6162C116.157 34.759 117.155 39.2479 122.1 39.2229C126.897 39.2001 127.951 34.5198 127.951 30.6162C127.951 26.7125 126.894 22.0619 122.098 22.0413C121.091 22.0527 120.094 22.2401 119.152 22.5949V18.8186C120.429 18.3074 121.787 18.0282 123.161 17.9942C129.716 17.9942 132.626 24.5011 132.626 30.3019ZM90.7214 43.2837H95.3477V10.1665H90.7214V43.2837ZM173.466 18.0034C172.092 18.0374 170.733 18.3166 169.457 18.8278V22.6039C170.399 22.2489 171.397 22.0616 172.404 22.0505C177.199 22.071 178.256 26.7239 178.256 30.6252C178.256 34.5267 177.197 39.2025 172.394 39.2229C167.448 39.2479 166.45 34.759 166.45 30.6162V10.1665H161.827V43.2859H165.472L166.083 40.9856C167.427 42.3204 169.41 43.2859 172.227 43.2859C179.706 43.2859 182.92 37.0046 182.92 30.3041C182.92 24.5011 180.01 17.9942 173.466 17.9942V18.0034ZM206.333 36.7518V28.0723C206.333 21.2397 201.949 18.0148 196.896 18.0148C191.559 18.0148 187.807 21.4994 187.807 21.4994L190.014 24.6697C190.514 24.2688 193.166 22.2736 196.642 22.2736C199.609 22.2736 202.014 23.6402 202.014 28.2203V33.6157C202.014 37.6491 197.934 39.38 195.183 39.38C192.737 39.38 190.939 38.3961 190.939 36.221C190.939 32.5384 195.972 31.4384 199.009 31.5933V28.0427C192.351 27.6988 186.382 30.4796 186.382 36.4989C186.382 40.6851 189.614 43.2769 194.455 43.2769C198.082 43.2769 201.216 41.8716 202.748 40.3366C203.569 42.4456 205.797 43.2769 207.527 43.2769L208.433 39.8789C206.979 39.56 206.339 38.8608 206.339 36.7428L206.333 36.7518ZM156.038 36.7518V28.0723C156.038 21.2397 151.655 18.0148 146.602 18.0148C141.265 18.0148 137.513 21.4994 137.513 21.4994L139.723 24.6697C140.22 24.2688 142.872 22.2736 146.349 22.2736C149.316 22.2736 151.723 23.6402 151.723 28.2203V33.6157C151.723 37.6491 147.643 39.38 144.889 39.38C142.443 39.38 140.646 38.3961 140.646 36.221C140.646 32.5384 145.678 31.4384 148.715 31.5933V28.0427C142.058 27.6988 136.088 30.4796 136.088 36.4989C136.088 40.6851 139.32 43.2769 144.161 43.2769C147.788 43.2769 150.923 41.8716 152.455 40.3366C153.275 42.4456 155.503 43.2769 157.233 43.2769L158.14 39.8789C156.684 39.56 156.045 38.8608 156.045 36.7428L156.038 36.7518ZM84.9348 36.7518V28.0723C84.9348 21.2397 80.5512 18.0148 75.499 18.0148C70.1611 18.0148 66.4098 21.4994 66.4098 21.4994L68.6266 24.6697C69.123 24.2688 71.7772 22.2736 75.2519 22.2736C78.2211 22.2736 80.626 23.6402 80.626 28.2203V33.6157C80.626 37.6491 76.546 39.38 73.7921 39.38C71.3487 39.38 69.5513 38.3961 69.5513 36.221C69.5513 32.5384 74.5809 31.4384 77.6204 31.5933V28.0427C70.9611 27.7078 65 30.4886 65 36.5081C65 40.6941 68.2322 43.2859 73.0737 43.2859C76.7002 43.2859 79.8326 41.8807 81.3649 40.3456C82.1877 42.4546 84.4135 43.2859 86.1453 43.2859L87.0518 39.8879C85.5808 39.56 84.9461 38.8608 84.9461 36.7428L84.9348 36.7518ZM101.121 43.2951H105.745V18.764H101.121V43.2951ZM101.121 14.8263H105.745V10.1665H101.121V14.8263Z" fill="black"/>
<path d="M42.9099 40.7833C42.6833 41.1955 42.137 41.3823 41.652 41.5212L36.1238 43.0904C35.6387 43.2271 35.0335 43.3387 34.6277 43.1064C34.222 42.8741 34.0203 42.2978 33.8911 41.8127C25.8627 11.7224 24.7544 5.23593 21.5245 5.23593C18.2945 5.23593 17.1953 11.7224 9.15789 41.8127C9.02869 42.2978 8.82242 42.8741 8.42123 43.1064C8.02005 43.3387 7.40805 43.2271 6.923 43.0904L1.39474 41.5212C0.909686 41.3823 0.365705 41.1955 0.139044 40.7833C-0.0876175 40.371 0.0121134 39.7675 0.139044 39.2961C8.35551 8.65687 12.9454 0 21.5245 0C30.1036 0 34.7026 8.6545 42.9077 39.2961C43.0346 39.7675 43.1299 40.3848 42.9099 40.7833Z" fill="#FDB913"/>
<path d="M47.8209 21.4289C47.8159 21.7237 47.7488 22.0141 47.6238 22.2808L47.3971 22.9117C47.2976 23.2846 47.0724 23.6114 46.7601 23.8364C46.396 23.9901 45.9902 24.0134 45.6109 23.9024C38.4072 22.305 30.8767 23.2279 24.266 26.5182C17.6556 29.8086 12.3618 35.2688 9.26136 41.9948C9.0347 42.496 8.67658 43.2406 7.86966 43.2406C7.54659 43.2393 7.22561 43.1887 6.91769 43.0904L1.38943 41.5211H1.37583C0.736649 41.339 0 41.0908 0 40.2229C0.0236225 39.8475 0.125561 39.4813 0.299194 39.148C4.2271 30.6884 11.2003 24.0392 19.8136 20.5407C28.4268 17.0421 38.0397 16.9543 46.7148 20.2948C47.1454 20.4542 47.8209 20.7093 47.8209 21.4289Z" fill="url(#paint0_linear_10600_12609)"/>
</g>
<defs>
<linearGradient id="paint0_linear_10600_12609" x1="0.00453322" y1="30.5413" x2="47.8209" y2="30.5413" gradientUnits="userSpaceOnUse">
<stop offset="0.3" stop-color="#FDB913"/>
<stop offset="0.75" stop-color="#F7941F"/>
</linearGradient>
<clipPath id="clip0_10600_12609">
<rect width="209" height="44" fill="white"/>
</clipPath>
</defs>
</svg>
