<svg width="100" height="61" viewBox="0 0 100 61" fill="none" xmlns="http://www.w3.org/2000/svg">
<g clip-path="url(#clip0_10600_12610)">
<path fill-rule="evenodd" clip-rule="evenodd" d="M33.4007 44.0873H32.9237C32.0896 43.9578 31.3404 43.5056 30.839 42.829C30.3377 42.1524 30.1246 41.306 30.2461 40.4737C32.3747 26.4992 33.0812 4.19464 33.0812 4.03772C33.2387 2.30716 34.5797 0.899396 36.3933 0.975612C37.2238 1.01267 38.0076 1.36853 38.5806 1.96861C39.1536 2.56869 39.4712 3.36643 39.4669 4.19464C39.4669 5.13614 38.6794 27.0461 36.5508 41.4197C36.4369 42.168 36.0553 42.8501 35.4765 43.3403C34.8976 43.8305 34.1604 44.0958 33.4007 44.0873ZM78.5685 49.8976C77.8983 49.9009 77.2449 49.689 76.7051 49.2933C76.1653 48.8976 75.7678 48.3392 75.5714 47.7008C75.4395 47.3093 75.388 46.8953 75.4201 46.4835C75.4522 46.0717 75.5672 45.6706 75.7583 45.3041C75.9494 44.9375 76.2127 44.6131 76.5323 44.3501C76.852 44.0871 77.2216 43.891 77.619 43.7734C92.5144 39.0659 92.753 35.4479 92.834 33.4842C92.9915 30.4221 90.6289 26.4992 89.6839 25.1631C89.1921 24.4866 88.9903 23.6431 89.1228 22.8183C89.2553 21.9935 89.7113 21.2549 90.3904 20.765C91.0695 20.2751 91.9161 20.0741 92.744 20.2061C93.5719 20.3381 94.3133 20.7923 94.805 21.4689C95.2775 22.0965 99.5302 27.9876 99.1386 33.8787C98.7471 41.0251 93.2255 45.4233 79.5136 49.8214C79.3553 49.8269 79.1975 49.8419 79.041 49.8663C78.8843 49.8856 78.7265 49.8961 78.5685 49.8976ZM35.7633 60.9714C35.2913 60.9849 34.823 60.8853 34.3978 60.6809C33.9725 60.4765 33.6028 60.1733 33.3197 59.7968C33.0574 59.4759 32.8631 59.1053 32.7486 58.7074C32.6341 58.3096 32.6017 57.8927 32.6535 57.4821C32.7052 57.0714 32.84 56.6755 33.0496 56.3182C33.2593 55.9608 33.5394 55.6496 33.8732 55.4032C40.3354 50.2922 44.6735 45.7371 47.5086 41.7335C45.9336 40.9489 44.2775 39.7698 43.4135 37.8061C42.6215 35.9993 42.149 33.0134 44.9075 29.0098C48.8497 23.1994 52.7918 21.8634 54.2858 21.5496C55.2555 21.3461 56.2666 21.5166 57.1152 22.0267C57.9637 22.5367 58.5865 23.3483 58.858 24.2979C59.254 25.7101 60.199 30.189 57.3639 37.0215C61.144 36.9408 64.1411 35.9231 66.4272 34.0356C70.8373 30.5028 71.0758 24.531 71.0758 24.4548C71.113 23.6266 71.4709 22.845 72.0742 22.2741C72.6775 21.7031 73.4793 21.3872 74.3114 21.3927C75.1419 21.4297 75.9258 21.7856 76.4987 22.3857C77.0717 22.9858 77.3893 23.7835 77.385 24.6117C77.385 24.9255 77.07 33.3273 70.5268 38.8238C66.4272 42.2805 60.829 43.7734 54.0518 43.2265C50.8207 48.1716 45.6951 53.9864 37.7343 60.2631C37.1764 60.7142 36.4817 60.9638 35.7633 60.9714ZM52.8683 29.2475C51.7567 30.1934 50.7982 31.3053 50.0332 32.5427C49.0072 34.1119 48.9262 34.9771 49.0072 35.2148C49.1647 35.6093 49.9522 35.9993 50.7397 36.3132C52.2383 33.3318 52.7108 30.978 52.8683 29.2475ZM53.6558 51.3144C53.6869 52.1297 54.031 52.9021 54.6173 53.4719C55.2035 54.0418 55.9869 54.3656 56.8059 54.3765H56.9679C57.2064 54.3765 62.4851 54.2196 70.0543 52.4935C70.465 52.4101 70.855 52.2458 71.2012 52.0103C71.5474 51.7748 71.843 51.4729 72.0705 51.1221C72.2981 50.7714 72.4531 50.3789 72.5265 49.9677C72.5999 49.5565 72.5901 49.1349 72.4978 48.7275C72.413 48.3183 72.2473 47.9299 72.0104 47.5851C71.7735 47.2403 71.4701 46.9458 71.1179 46.7189C70.7658 46.4919 70.3718 46.337 69.959 46.2631C69.5461 46.1892 69.1227 46.1979 68.7132 46.2886C61.693 47.777 56.7294 48.0146 56.6529 48.0146C55.8171 48.0587 55.0329 48.4305 54.4713 49.0487C53.9098 49.667 53.6166 50.4815 53.6558 51.3144ZM0.765718 59.7161C1.31473 60.5007 2.34077 60.9714 3.28579 60.9714C3.91581 60.9714 4.54583 60.8145 5.17585 60.4245C25.2014 45.8985 25.989 26.8892 25.989 26.1046C25.989 24.3786 24.6479 22.9663 22.9154 22.8856C21.1783 22.8049 19.7653 24.2216 19.6843 25.9477C19.6843 26.5754 18.8923 42.675 1.47224 55.318C1.13574 55.5604 0.850503 55.8665 0.632845 56.2187C0.415187 56.571 0.269378 56.9626 0.203758 57.3711C0.138139 57.7796 0.153996 58.197 0.250422 58.5994C0.346849 59.0017 0.521952 59.3812 0.765718 59.7161Z" fill="#D83939"/>
</g>
<defs>
<clipPath id="clip0_10600_12610">
<rect width="100" height="61" fill="white"/>
</clipPath>
</defs>
</svg>
