<svg width="134" height="160" viewBox="0 0 134 160" fill="none" xmlns="http://www.w3.org/2000/svg">
<g clip-path="url(#clip0_10530_8594)">
<rect x="29.5703" width="77.8182" height="160" rx="17.7778" fill="#E9ECEF"/>
<path d="M34.0898 20C34.0898 11.7157 40.8056 5 49.0898 5H87.0898C95.3741 5 102.09 11.7157 102.09 20V46H34.0898V20Z" fill="white"/>
<path d="M34.0898 114H102.09V140C102.09 148.284 95.3741 155 87.0898 155H49.0898C40.8056 155 34.0898 148.284 34.0898 140V114Z" fill="white"/>
<rect x="34.293" y="51" width="68" height="58" fill="white"/>
<path d="M42.7345 71.6852C48.028 74.7719 48.028 82.4202 42.7345 85.5069L24.9275 95.8906C19.5942 99.0006 12.8976 95.1535 12.8976 88.9798L12.8976 68.2123C12.8976 62.0386 19.5942 58.1915 24.9275 61.3015L42.7345 71.6852Z" fill="#6C00CB"/>
<path d="M91.4491 85.5067C86.1556 82.42 86.1556 74.7717 91.4491 71.685L109.256 61.3013C114.589 58.1913 121.286 62.0384 121.286 68.2121L121.286 88.9796C121.286 95.1533 114.589 99.0004 109.256 95.8904L91.4491 85.5067Z" fill="#6C00CB"/>
</g>
<defs>
<clipPath id="clip0_10530_8594">
<rect width="134" height="160" fill="white"/>
</clipPath>
</defs>
</svg>
