<svg width="79" height="160" viewBox="0 0 79 160" fill="none" xmlns="http://www.w3.org/2000/svg">
<g clip-path="url(#clip0_10618_21825)">
<path d="M40.2152 56.3911C38.0344 56.3911 36.2093 55.6563 34.7396 54.1867C33.3174 52.6696 32.6063 50.797 32.6063 48.5689C32.6063 46.4356 33.3174 44.6578 34.7396 43.2356C36.2093 41.8133 38.0344 41.1022 40.2152 41.1022C42.3959 41.1022 44.2211 41.8133 45.6907 43.2356C47.1604 44.6578 47.8952 46.4356 47.8952 48.5689C47.8952 50.797 47.1604 52.6696 45.6907 54.1867C44.2211 55.6563 42.3959 56.3911 40.2152 56.3911ZM22.793 16.9244C22.793 13.9378 23.5041 11.1407 24.9263 8.53333C26.3485 5.92593 28.3159 3.86371 30.8285 2.34667C33.3411 0.782223 36.1619 0 39.2907 0C42.467 0 45.2641 0.853334 47.6819 2.56C50.0996 4.26667 51.9722 6.44741 53.2996 9.10222C54.627 11.757 55.3382 14.4593 55.433 17.2089L45.1219 18.4889C45.027 17.0667 44.4819 15.7156 43.4863 14.4356C42.5382 13.1081 41.1396 12.4444 39.2907 12.4444C37.7737 12.4444 36.5174 12.9422 35.5219 13.9378C34.5263 14.9333 34.0285 16.1422 34.0285 17.5644C34.0285 18.4178 34.1233 19.0578 34.313 19.4844C34.55 19.9111 35.0952 20.48 35.9485 21.1911C36.8019 21.8548 38.5559 23.1822 41.2107 25.1733C43.107 26.5481 44.3633 27.923 44.9796 29.2978C45.6433 30.6726 45.9752 32.5452 45.9752 34.9156V38.1156H34.4552V34.2756C33.6019 33.4222 32.4167 32.3319 30.8996 31.0044C28.6715 29.0133 27.0359 27.4489 25.993 26.3111C24.9974 25.1733 24.2152 23.8696 23.6463 22.4C23.0774 20.9304 22.793 19.1052 22.793 16.9244Z" fill="#6C00CB"/>
<rect x="28.4453" y="75.0576" width="49.7778" height="16" rx="8" fill="#E9ECEF"/>
<rect y="96.3911" width="78.2222" height="16" rx="8" fill="#E9ECEF"/>
<rect x="15.1094" y="117.724" width="63.1111" height="16" rx="8" fill="#E9ECEF"/>
<rect y="139.058" width="78.2222" height="16" rx="8" fill="#E9ECEF"/>
</g>
<defs>
<clipPath id="clip0_10618_21825">
<rect width="79" height="160" fill="white"/>
</clipPath>
</defs>
</svg>
