<?xml version="1.0" encoding="UTF-8"?>
<svg id="Layer_1" xmlns="http://www.w3.org/2000/svg" version="1.1" xmlns:xlink="http://www.w3.org/1999/xlink" viewBox="0 0 133.1 145">
  <!-- Generator: Adobe Illustrator 29.1.0, SVG Export Plug-In . SVG Version: 2.1.0 Build 142)  -->
  <defs>
    <style>
      .st0 {
        mask: url(#mask-5);
      }

      .st1 {
        mask: url(#mask-1);
      }

      .st2 {
        mask: url(#mask-6);
      }

      .st3 {
        mask: url(#mask-7);
      }

      .st4 {
        fill: #fff;
      }

      .st5 {
        mask: url(#mask);
      }

      .st6 {
        mask: url(#mask-2);
      }

      .st7 {
        fill: #dee2e6;
        stroke: #fff;
        stroke-width: 1px;
      }

      .st8 {
        mask: url(#mask-4);
      }

      .st9 {
        fill: #6c00cb;
      }

      .st10 {
        mask: url(#mask-3);
      }
    </style>
    <mask id="mask" x="72.7" y="78" width="58.4" height="44.6" maskUnits="userSpaceOnUse">
      <g id="path-3-inside-1_10618_21807">
        <path class="st4" d="M125.8,78.5c2.8,0,5,2.2,4.8,5-.5,6.8-2.1,13.5-4.7,19.8-2.6,6.3-6.2,12.1-10.6,17.3-1.8,2.1-5,2.1-6.9.1l-33.7-33.7c-3.1-3.1-.9-8.5,3.5-8.5h47.6Z"/>
      </g>
    </mask>
    <mask id="mask-1" x="65.6" y="85" width="44.6" height="58.4" maskUnits="userSpaceOnUse">
      <g id="path-4-inside-2_10618_21807">
        <path class="st4" d="M108.3,120.7c2,2,2,5.1-.1,6.9-5.2,4.4-11,8-17.3,10.6-6.3,2.6-13,4.2-19.8,4.7-2.8.2-5-2-5-4.8v-47.6c0-4.5,5.4-6.7,8.5-3.5l33.7,33.7Z"/>
      </g>
    </mask>
    <mask id="mask-2" x="22" y="85" width="44.6" height="58.4" maskUnits="userSpaceOnUse">
      <g id="path-5-inside-3_10618_21807">
        <path class="st4" d="M66.1,138.1c0,2.8-2.2,5-5,4.8-6.8-.5-13.5-2.1-19.8-4.7-6.3-2.6-12.1-6.2-17.3-10.6-2.1-1.8-2.1-5-.1-6.9l33.7-33.7c3.1-3.1,8.5-.9,8.5,3.5v47.6Z"/>
      </g>
    </mask>
    <mask id="mask-3" x="1.2" y="78.1" width="58.4" height="44.6" maskUnits="userSpaceOnUse">
      <g id="path-6-inside-4_10618_21807">
        <path class="st4" d="M24,120.7c-2,2-5.1,2-6.9-.1-4.4-5.2-8-11-10.6-17.3-2.6-6.3-4.2-13-4.7-19.8-.2-2.8,2-5,4.8-5h47.6c4.5,0,6.7,5.4,3.5,8.5l-33.7,33.7Z"/>
      </g>
    </mask>
    <mask id="mask-4" x="1.2" y="34.2" width="58.4" height="44.6" maskUnits="userSpaceOnUse">
      <g id="path-7-inside-5_10618_21807">
        <path class="st4" d="M6.5,78.4c-2.8,0-5-2.2-4.8-5,.5-6.8,2.1-13.5,4.7-19.8,2.6-6.3,6.2-12.1,10.6-17.3,1.8-2.1,5-2.1,6.9-.1l33.7,33.7c3.1,3.1.9,8.5-3.5,8.5H6.5Z"/>
      </g>
    </mask>
    <mask id="mask-5" x="22" y="13.5" width="44.6" height="58.4" maskUnits="userSpaceOnUse">
      <g id="path-8-inside-6_10618_21807">
        <path class="st4" d="M23.9,36.3c-2-2-2-5.1.1-6.9,5.2-4.4,11-8,17.3-10.6,6.3-2.6,13-4.2,19.8-4.7,2.8-.2,5,2,5,4.8v47.6c0,4.5-5.4,6.7-8.5,3.5L23.9,36.3Z"/>
      </g>
    </mask>
    <mask id="mask-6" x="65.7" y="13.4" width="44.6" height="58.4" maskUnits="userSpaceOnUse">
      <g id="path-9-inside-7_10618_21807">
        <path class="st4" d="M66.2,18.7c0-2.8,2.2-5,5-4.8,6.8.5,13.5,2.1,19.8,4.7,6.3,2.6,12.1,6.2,17.3,10.6,2.1,1.8,2.1,5,.1,6.9l-33.7,33.7c-3.1,3.1-8.5.9-8.5-3.5V18.7Z"/>
      </g>
    </mask>
    <mask id="mask-7" x="72.6" y="34.2" width="58.4" height="44.6" maskUnits="userSpaceOnUse">
      <g id="path-10-inside-8_10618_21807">
        <path class="st4" d="M108.2,36.2c2-2,5.1-2,6.9.1,4.4,5.2,8,11,10.6,17.3,2.6,6.3,4.2,13,4.7,19.8.2,2.8-2,5-4.8,5h-47.6c-4.5,0-6.7-5.4-3.5-8.5l33.7-33.7Z"/>
      </g>
    </mask>
  </defs>
  <circle class="st4" cx="66.6" cy="78.5" r="66.6"/>
  <g class="st5">
    <path class="st7" d="M125.8,78.5c2.8,0,5,2.2,4.8,5-.5,6.8-2.1,13.5-4.7,19.8-2.6,6.3-6.2,12.1-10.6,17.3-1.8,2.1-5,2.1-6.9.1l-33.7-33.7c-3.1-3.1-.9-8.5,3.5-8.5h47.6Z"/>
  </g>
  <g class="st1">
    <path class="st7" d="M108.3,120.7c2,2,2,5.1-.1,6.9-5.2,4.4-11,8-17.3,10.6-6.3,2.6-13,4.2-19.8,4.7-2.8.2-5-2-5-4.8v-47.6c0-4.5,5.4-6.7,8.5-3.5l33.7,33.7Z"/>
  </g>
  <g class="st6">
    <path class="st7" d="M66.1,138.1c0,2.8-2.2,5-5,4.8-6.8-.5-13.5-2.1-19.8-4.7-6.3-2.6-12.1-6.2-17.3-10.6-2.1-1.8-2.1-5-.1-6.9l33.7-33.7c3.1-3.1,8.5-.9,8.5,3.5v47.6Z"/>
  </g>
  <g class="st10">
    <path class="st7" d="M24,120.7c-2,2-5.1,2-6.9-.1-4.4-5.2-8-11-10.6-17.3-2.6-6.3-4.2-13-4.7-19.8-.2-2.8,2-5,4.8-5h47.6c4.5,0,6.7,5.4,3.5,8.5l-33.7,33.7Z"/>
  </g>
  <g class="st8">
    <path class="st7" d="M6.5,78.4c-2.8,0-5-2.2-4.8-5,.5-6.8,2.1-13.5,4.7-19.8,2.6-6.3,6.2-12.1,10.6-17.3,1.8-2.1,5-2.1,6.9-.1l33.7,33.7c3.1,3.1.9,8.5-3.5,8.5H6.5Z"/>
  </g>
  <g class="st0">
    <path class="st7" d="M23.9,36.3c-2-2-2-5.1.1-6.9,5.2-4.4,11-8,17.3-10.6,6.3-2.6,13-4.2,19.8-4.7,2.8-.2,5,2,5,4.8v47.6c0,4.5-5.4,6.7-8.5,3.5L23.9,36.3Z"/>
  </g>
  <g class="st2">
    <path class="st7" d="M66.2,18.7c0-2.8,2.2-5,5-4.8,6.8.5,13.5,2.1,19.8,4.7,6.3,2.6,12.1,6.2,17.3,10.6,2.1,1.8,2.1,5,.1,6.9l-33.7,33.7c-3.1,3.1-8.5.9-8.5-3.5V18.7Z"/>
  </g>
  <g class="st3">
    <path class="st7" d="M108.2,36.2c2-2,5.1-2,6.9.1,4.4,5.2,8,11,10.6,17.3,2.6,6.3,4.2,13,4.7,19.8.2,2.8-2,5-4.8,5h-47.6c-4.5,0-6.7-5.4-3.5-8.5l33.7-33.7Z"/>
  </g>
  <path class="st9" d="M72.9,30.2c-3.1,5.1-10.5,5.1-13.7,0l-10.9-17.9c-3.2-5.3.6-12.2,6.8-12.2h21.8c6.2,0,10.1,6.8,6.8,12.2l-10.9,17.9Z"/>
</svg>