<svg width="87" height="87" viewBox="0 0 87 87" fill="none" xmlns="http://www.w3.org/2000/svg">
<g clip-path="url(#clip0_10600_12414)">
<path d="M43.5017 3.48H45.2417V19.14C45.2417 19.6015 45.425 20.0441 45.7514 20.3704C46.0777 20.6967 46.5202 20.88 46.9817 20.88C47.4432 20.88 47.8858 20.6967 48.2121 20.3704C48.5384 20.0441 48.7217 19.6015 48.7217 19.14V17.4H57.4217C57.8832 17.4 58.3258 17.2167 58.6521 16.8904C58.9784 16.5641 59.1617 16.1215 59.1617 15.66C59.1617 15.1985 58.9784 14.7559 58.6521 14.4296C58.3258 14.1033 57.8832 13.92 57.4217 13.92H52.2017C52.2017 12.997 51.8351 12.1119 51.1825 11.4593C50.5298 10.8066 49.6447 10.44 48.7217 10.44V3.48C48.7217 2.55705 48.3551 1.6719 47.7025 1.01927C47.0498 0.366642 46.1647 0 45.2417 0H43.5017C43.0402 0 42.5977 0.183321 42.2714 0.509634C41.945 0.835948 41.7617 1.27852 41.7617 1.74C41.7617 1.9685 41.8067 2.19476 41.8942 2.40587C41.9816 2.61698 42.1098 2.80879 42.2714 2.97037C42.4329 3.13194 42.6247 3.26011 42.8358 3.34755C43.047 3.43499 43.2732 3.48 43.5017 3.48Z" fill="white"/>
<path d="M31.3198 6.96H34.7998V8.7C34.7998 9.16148 34.9832 9.60405 35.3095 9.93037C35.6358 10.2567 36.0784 10.44 36.5398 10.44C37.0013 10.44 37.4439 10.2567 37.7702 9.93037C38.0965 9.60405 38.2798 9.16148 38.2798 8.7V3.48C38.2798 2.55705 37.9132 1.6719 37.2606 1.01927C36.608 0.366642 35.7228 0 34.7998 0H31.3198C30.3969 0 29.5117 0.366642 28.8591 1.01927C28.2065 1.6719 27.8398 2.55705 27.8398 3.48C27.8398 3.937 27.9299 4.38952 28.1047 4.81174C28.2796 5.23395 28.536 5.61758 28.8591 5.94073C29.5117 6.59336 30.3969 6.96 31.3198 6.96Z" fill="white"/>
<path d="M57.4197 10.44C58.3807 10.44 59.1597 9.66094 59.1597 8.69996C59.1597 7.73899 58.3807 6.95996 57.4197 6.95996C56.4587 6.95996 55.6797 7.73899 55.6797 8.69996C55.6797 9.66094 56.4587 10.44 57.4197 10.44Z" fill="white"/>
<path d="M29.5798 13.9199C30.5408 13.9199 31.3198 13.1409 31.3198 12.1799C31.3198 11.219 30.5408 10.4399 29.5798 10.4399C28.6189 10.4399 27.8398 11.219 27.8398 12.1799C27.8398 13.1409 28.6189 13.9199 29.5798 13.9199Z" fill="white"/>
<path d="M38.2808 13.9199C37.3578 13.9199 36.4727 14.2866 35.8201 14.9392C35.1674 15.5918 34.8008 16.477 34.8008 17.3999V34.7999C34.8008 35.7229 35.1674 36.608 35.8201 37.2607C36.4727 37.9133 37.3578 38.2799 38.2808 38.2799H40.0208C40.4823 38.2799 40.9248 38.0966 41.2511 37.7703C41.5775 37.444 41.7608 37.0014 41.7608 36.5399C41.7608 36.0785 41.5775 35.6359 41.2511 35.3096C40.9248 34.9833 40.4823 34.7999 40.0208 34.7999H38.2808V20.8799C39.2037 20.8799 40.0889 20.5133 40.7415 19.8607C41.3941 19.208 41.7608 18.3229 41.7608 17.3999V12.1799C41.7608 11.7185 41.5775 11.2759 41.2511 10.9496C40.9248 10.6233 40.4823 10.4399 40.0208 10.4399C39.5593 10.4399 39.1167 10.6233 38.7904 10.9496C38.4641 11.2759 38.2808 11.7185 38.2808 12.1799V13.9199Z" fill="white"/>
<path d="M43.5017 24.3599C44.4627 24.3599 45.2417 23.5809 45.2417 22.6199C45.2417 21.6589 44.4627 20.8799 43.5017 20.8799C42.5407 20.8799 41.7617 21.6589 41.7617 22.6199C41.7617 23.5809 42.5407 24.3599 43.5017 24.3599Z" fill="white"/>
<path d="M50.4588 24.3599C51.4197 24.3599 52.1988 23.5809 52.1988 22.6199C52.1988 21.6589 51.4197 20.8799 50.4588 20.8799C49.4978 20.8799 48.7188 21.6589 48.7188 22.6199C48.7188 23.5809 49.4978 24.3599 50.4588 24.3599Z" fill="white"/>
<path d="M57.4197 24.3599C58.3807 24.3599 59.1597 23.5809 59.1597 22.6199C59.1597 21.6589 58.3807 20.8799 57.4197 20.8799C56.4587 20.8799 55.6797 21.6589 55.6797 22.6199C55.6797 23.5809 56.4587 24.3599 57.4197 24.3599Z" fill="white"/>
<path d="M29.5798 27.8399C30.0413 27.8399 30.4839 27.6566 30.8102 27.3302C31.1365 27.0039 31.3198 26.5614 31.3198 26.0999V22.6199C31.3198 22.1584 31.1365 21.7158 30.8102 21.3895C30.4839 21.0632 30.0413 20.8799 29.5798 20.8799C29.1184 20.8799 28.6758 21.0632 28.3495 21.3895C28.0232 21.7158 27.8398 22.1584 27.8398 22.6199V24.3599V26.0999C27.8398 26.5614 28.0232 27.0039 28.3495 27.3302C28.6758 27.6566 29.1184 27.8399 29.5798 27.8399Z" fill="white"/>
<path d="M53.9392 27.8399C54.9002 27.8399 55.6792 27.0608 55.6792 26.0999C55.6792 25.1389 54.9002 24.3599 53.9392 24.3599C52.9782 24.3599 52.1992 25.1389 52.1992 26.0999C52.1992 27.0608 52.9782 27.8399 53.9392 27.8399Z" fill="white"/>
<path d="M1.74 31.3198C2.70098 31.3198 3.48 30.5408 3.48 29.5798C3.48 28.6189 2.70098 27.8398 1.74 27.8398C0.779024 27.8398 0 28.6189 0 29.5798C0 30.5408 0.779024 31.3198 1.74 31.3198Z" fill="white"/>
<path d="M20.8784 27.8398H19.1384C18.677 27.8398 18.2344 28.0232 17.9081 28.3495C17.5818 28.6758 17.3984 29.1184 17.3984 29.5798C17.3984 30.0413 17.5818 30.4839 17.9081 30.8102C18.2344 31.1365 18.677 31.3198 19.1384 31.3198H24.3584V33.0598C24.3584 33.5213 24.5418 33.9639 24.8681 34.2902C25.1944 34.6165 25.637 34.7998 26.0984 34.7998C26.5599 34.7998 27.0025 34.6165 27.3288 34.2902C27.6551 33.9639 27.8384 33.5213 27.8384 33.0598V31.3198C27.8384 30.3969 27.4718 29.5117 26.8192 28.8591C26.1665 28.2065 25.2814 27.8398 24.3584 27.8398H20.8784Z" fill="white"/>
<path d="M64.3806 31.3198C65.3416 31.3198 66.1206 30.5408 66.1206 29.5798C66.1206 28.6189 65.3416 27.8398 64.3806 27.8398C63.4196 27.8398 62.6406 28.6189 62.6406 29.5798C62.6406 30.5408 63.4196 31.3198 64.3806 31.3198Z" fill="white"/>
<path d="M74.8181 31.3198C75.7791 31.3198 76.5581 30.5408 76.5581 29.5798C76.5581 28.6189 75.7791 27.8398 74.8181 27.8398C73.8571 27.8398 73.0781 28.6189 73.0781 29.5798C73.0781 30.5408 73.8571 31.3198 74.8181 31.3198Z" fill="white"/>
<path d="M85.2591 27.8398H83.5191C82.5961 27.8398 81.711 28.2065 81.0583 28.8591C80.4057 29.5117 80.0391 30.3969 80.0391 31.3198V33.0598C80.0391 33.5213 80.2224 33.9639 80.5487 34.2902C80.875 34.6165 81.3176 34.7998 81.7791 34.7998C82.2405 34.7998 82.6831 34.6165 83.0094 34.2902C83.3357 33.9639 83.5191 33.5213 83.5191 33.0598V31.3198H85.2591C85.7205 31.3198 86.1631 31.1365 86.4894 30.8102C86.8157 30.4839 86.9991 30.0413 86.9991 29.5798C86.9991 29.1184 86.8157 28.6758 86.4894 28.3495C86.1631 28.0232 85.7205 27.8398 85.2591 27.8398Z" fill="white"/>
<path d="M41.7617 31.3198V33.0598C41.7617 33.5213 41.945 33.9639 42.2714 34.2902C42.5977 34.6165 43.0402 34.7998 43.5017 34.7998C43.9632 34.7998 44.4058 34.6165 44.7321 34.2902C45.0584 33.9639 45.2417 33.5213 45.2417 33.0598V29.5798C45.2417 29.1184 45.0584 28.6758 44.7321 28.3495C44.4058 28.0232 43.9632 27.8398 43.5017 27.8398C43.0402 27.8398 42.5977 28.0232 42.2714 28.3495C41.945 28.6758 41.7617 29.1184 41.7617 29.5798V31.3198Z" fill="white"/>
<path d="M67.8611 34.7998C68.8221 34.7998 69.6011 34.0208 69.6011 33.0598C69.6011 32.0988 68.8221 31.3198 67.8611 31.3198C66.9001 31.3198 66.1211 32.0988 66.1211 33.0598C66.1211 34.0208 66.9001 34.7998 67.8611 34.7998Z" fill="white"/>
<path d="M71.3416 38.2798C72.3025 38.2798 73.0816 37.5008 73.0816 36.5398C73.0816 35.5788 72.3025 34.7998 71.3416 34.7998C70.3806 34.7998 69.6016 35.5788 69.6016 36.5398C69.6016 37.5008 70.3806 38.2798 71.3416 38.2798Z" fill="white"/>
<path d="M1.74 41.7598C2.20148 41.7598 2.64405 41.5765 2.97036 41.2502C3.29668 40.9239 3.48 40.4813 3.48 40.0198V38.2798H6.96V45.2398C6.03705 45.2398 5.15189 45.6065 4.49927 46.2591C3.84664 46.9117 3.48 47.7969 3.48 48.7198V50.4598C3.48 50.9213 3.66331 51.3639 3.98963 51.6902C4.31594 52.0165 4.75852 52.1998 5.22 52.1998C5.68148 52.1998 6.12405 52.0165 6.45036 51.6902C6.77667 51.3639 6.96 50.9213 6.96 50.4598V48.7198C7.88295 48.7198 8.7681 48.3532 9.42072 47.7006C10.0733 47.0479 10.44 46.1628 10.44 45.2398V41.7598H13.92C14.843 41.7598 15.7281 41.3932 16.3807 40.7406C17.0333 40.0879 17.4 39.2028 17.4 38.2798H22.62C23.0815 38.2798 23.524 38.0965 23.8504 37.7702C24.1767 37.4439 24.36 37.0013 24.36 36.5398C24.36 36.0784 24.1767 35.6358 23.8504 35.3095C23.524 34.9832 23.0815 34.7998 22.62 34.7998H17.4V33.0598C17.4 32.5984 17.2167 32.1558 16.8904 31.8295C16.564 31.5032 16.1215 31.3198 15.66 31.3198C15.1985 31.3198 14.7559 31.5032 14.4296 31.8295C14.1033 32.1558 13.92 32.5984 13.92 33.0598V34.7998V38.2798H10.44V31.3198H12.18C12.6415 31.3198 13.084 31.1365 13.4104 30.8102C13.7367 30.4839 13.92 30.0413 13.92 29.5798C13.92 29.1184 13.7367 28.6758 13.4104 28.3495C13.084 28.0232 12.6415 27.8398 12.18 27.8398H10.44C9.51705 27.8398 8.63189 28.2065 7.97927 28.8591C7.32664 29.5117 6.96 30.3969 6.96 31.3198V34.7998H3.48C2.55705 34.7998 1.67189 35.1665 1.01927 35.8191C0.366639 36.4717 0 37.3569 0 38.2798V40.0198C0 40.2483 0.0450003 40.4746 0.132443 40.6857C0.219887 40.8968 0.348054 41.0886 0.509628 41.2502C0.671201 41.4118 0.863023 41.54 1.07413 41.6274C1.28524 41.7148 1.5115 41.7598 1.74 41.7598Z" fill="white"/>
<path d="M48.7217 38.2798C49.6447 38.2798 50.5298 37.9132 51.1825 37.2606C51.8351 36.6079 52.2017 35.7228 52.2017 34.7998V29.5798C52.2017 29.1184 52.0184 28.6758 51.6921 28.3495C51.3658 28.0232 50.9232 27.8398 50.4617 27.8398C50.0002 27.8398 49.5577 28.0232 49.2314 28.3495C48.905 28.6758 48.7217 29.1184 48.7217 29.5798V31.3198V34.7998C47.7988 34.7998 46.9136 35.1665 46.261 35.8191C45.6084 36.4717 45.2417 37.3569 45.2417 38.2798H43.5017C43.0402 38.2798 42.5977 38.4632 42.2714 38.7895C41.945 39.1158 41.7617 39.5584 41.7617 40.0198C41.7617 40.4813 41.945 40.9239 42.2714 41.2502C42.5977 41.5765 43.0402 41.7598 43.5017 41.7598H45.2417C46.1647 41.7598 47.0498 41.3932 47.7025 40.7406C48.3551 40.0879 48.7217 39.2028 48.7217 38.2798Z" fill="white"/>
<path d="M83.5181 41.7598H80.0381C80.0381 40.8368 79.6715 39.9517 79.0189 39.2991C78.3662 38.6464 77.4811 38.2798 76.5581 38.2798H74.8181C74.3566 38.2798 73.9141 38.4631 73.5878 38.7894C73.2614 39.1157 73.0781 39.5583 73.0781 40.0198C73.0781 40.4813 73.2614 40.9238 73.5878 41.2502C73.9141 41.5765 74.3566 41.7598 74.8181 41.7598H76.5581C76.5581 42.6827 76.9248 43.5679 77.5774 44.2205C78.23 44.8731 79.1152 45.2398 80.0381 45.2398H83.5181V46.9798C83.5181 47.4413 83.7014 47.8838 84.0278 48.2102C84.3541 48.5365 84.7966 48.7198 85.2581 48.7198C85.7196 48.7198 86.1622 48.5365 86.4885 48.2102C86.8148 47.8838 86.9981 47.4413 86.9981 46.9798V45.2398C86.9981 44.3168 86.6315 43.4317 85.9789 42.7791C85.3262 42.1264 84.4411 41.7598 83.5181 41.7598Z" fill="white"/>
<path d="M40.0208 45.2402H38.2808C37.3578 45.2402 36.4727 45.6069 35.8201 46.2595C35.1674 46.9121 34.8008 47.7973 34.8008 48.7202V50.4602C34.8008 50.9217 34.9841 51.3643 35.3104 51.6906C35.6367 52.0169 36.0793 52.2002 36.5408 52.2002C37.0023 52.2002 37.4448 52.0169 37.7711 51.6906C38.0975 51.3643 38.2808 50.9217 38.2808 50.4602V48.7202H40.0208C40.4823 48.7202 40.9248 48.5369 41.2511 48.2106C41.5775 47.8843 41.7608 47.4417 41.7608 46.9802C41.7608 46.5188 41.5775 46.0762 41.2511 45.7499C40.9248 45.4236 40.4823 45.2402 40.0208 45.2402Z" fill="white"/>
<path d="M13.9214 48.7202H12.1814C11.7199 48.7202 11.2773 48.9036 10.951 49.2299C10.6247 49.5562 10.4414 49.9988 10.4414 50.4602C10.4414 50.9217 10.6247 51.3643 10.951 51.6906C11.2773 52.0169 11.7199 52.2002 12.1814 52.2002H22.6214C23.0829 52.2002 23.5255 52.0169 23.8518 51.6906C24.1781 51.3643 24.3614 50.9217 24.3614 50.4602C24.3614 49.9988 24.1781 49.5562 23.8518 49.2299C23.5255 48.9036 23.0829 48.7202 22.6214 48.7202H20.8814V46.9802C20.8814 46.5188 20.6981 46.0762 20.3718 45.7499C20.0455 45.4236 19.6029 45.2402 19.1414 45.2402C18.6799 45.2402 18.2373 45.4236 17.911 45.7499C17.5847 46.0762 17.4014 46.5188 17.4014 46.9802V48.7202H13.9214Z" fill="white"/>
<path d="M29.5789 52.1998C30.0404 52.1998 30.483 52.0165 30.8093 51.6901C31.1356 51.3638 31.3189 50.9213 31.3189 50.4598V48.7198C31.3189 47.7968 30.9523 46.9117 30.2996 46.2591C29.647 45.6064 28.7619 45.2398 27.8389 45.2398V41.7598H29.5789C30.0404 41.7598 30.483 41.5765 30.8093 41.2502C31.1356 40.9238 31.3189 40.4813 31.3189 40.0198C31.3189 39.5583 31.1356 39.1157 30.8093 38.7894C30.483 38.4631 30.0404 38.2798 29.5789 38.2798H27.8389C26.916 38.2798 26.0308 38.6464 25.3782 39.2991C24.7256 39.9517 24.3589 40.8368 24.3589 41.7598H22.6189C22.1574 41.7598 21.7149 41.9431 21.3885 42.2694C21.0622 42.5957 20.8789 43.0383 20.8789 43.4998C20.8789 43.9613 21.0622 44.4038 21.3885 44.7301C21.7149 45.0565 22.1574 45.2398 22.6189 45.2398H24.3589C24.3589 46.1627 24.7256 47.0479 25.3782 47.7005C26.0308 48.3531 26.916 48.7198 27.8389 48.7198V50.4598C27.8389 50.9213 28.0222 51.3638 28.3485 51.6901C28.6749 52.0165 29.1174 52.1998 29.5789 52.1998Z" fill="white"/>
<path d="M43.5017 48.7202C43.0402 48.7202 42.5977 48.9035 42.2714 49.2298C41.945 49.5562 41.7617 49.9987 41.7617 50.4602V52.2002C41.7617 53.1232 42.1284 54.0083 42.781 54.6609C43.4336 55.3136 44.3188 55.6802 45.2417 55.6802H46.9817C47.4432 55.6802 47.8858 55.4969 48.2121 55.1706C48.5384 54.8443 48.7217 54.4017 48.7217 53.9402C48.7217 53.4787 48.5384 53.0362 48.2121 52.7098C47.8858 52.3835 47.4432 52.2002 46.9817 52.2002H45.2417V50.4602C45.2417 49.9987 45.0584 49.5562 44.7321 49.2298C44.4058 48.9035 43.9632 48.7202 43.5017 48.7202Z" fill="white"/>
<path d="M80.0386 52.2002H81.7786C82.2401 52.2002 82.6826 52.0169 83.009 51.6906C83.3353 51.3643 83.5186 50.9217 83.5186 50.4602C83.5186 49.9987 83.3353 49.5562 83.009 49.2298C82.6826 48.9035 82.2401 48.7202 81.7786 48.7202H78.2986C77.8371 48.7202 77.3945 48.9035 77.0682 49.2298C76.7419 49.5562 76.5586 49.9987 76.5586 50.4602C76.5586 50.9217 76.7419 51.3643 77.0682 51.6906C77.3945 52.0169 77.8371 52.2002 78.2986 52.2002H80.0386Z" fill="white"/>
<path d="M1.74 55.6802C2.70098 55.6802 3.48 54.9012 3.48 53.9402C3.48 52.9792 2.70098 52.2002 1.74 52.2002C0.779024 52.2002 0 52.9792 0 53.9402C0 54.9012 0.779024 55.6802 1.74 55.6802Z" fill="white"/>
<path d="M26.0994 55.6802C27.0604 55.6802 27.8394 54.9012 27.8394 53.9402C27.8394 52.9792 27.0604 52.2002 26.0994 52.2002C25.1384 52.2002 24.3594 52.9792 24.3594 53.9402C24.3594 54.9012 25.1384 55.6802 26.0994 55.6802Z" fill="white"/>
<path d="M85.2603 52.1998C84.7988 52.1998 84.3563 52.3832 84.0299 52.7095C83.7036 53.0358 83.5203 53.4784 83.5203 53.9398V55.6798H73.0803V45.2398C73.0803 44.3169 72.7137 43.4317 72.061 42.7791C71.4084 42.1265 70.5233 41.7598 69.6003 41.7598H62.6403V38.2798C62.6403 37.3569 62.2737 36.4717 61.621 35.8191C60.9684 35.1665 60.0833 34.7998 59.1603 34.7998V29.5798C59.1603 29.1184 58.977 28.6758 58.6507 28.3495C58.3244 28.0232 57.8818 27.8398 57.4203 27.8398C56.9588 27.8398 56.5163 28.0232 56.1899 28.3495C55.8636 28.6758 55.6803 29.1184 55.6803 29.5798V31.3198V34.7998C55.6803 35.7228 56.047 36.6079 56.6996 37.2606C57.3522 37.9132 58.2374 38.2798 59.1603 38.2798V45.2398H55.6803V43.4998C55.6803 43.0384 55.497 42.5958 55.1707 42.2695C54.8444 41.9432 54.4018 41.7598 53.9403 41.7598C53.7118 41.7598 53.4855 41.8049 53.2744 41.8923C53.0633 41.9797 52.8715 42.1079 52.7099 42.2695C52.5484 42.4311 52.4202 42.6229 52.3328 42.834C52.2453 43.0451 52.2003 43.2713 52.2003 43.4998V45.2398H46.9803C46.5188 45.2398 46.0763 45.4232 45.7499 45.7495C45.4236 46.0758 45.2403 46.5184 45.2403 46.9798C45.2403 47.4413 45.4236 47.8839 45.7499 48.2102C46.0763 48.5365 46.5188 48.7198 46.9803 48.7198H48.7203V50.4598C48.7203 50.9213 48.9036 51.3639 49.2299 51.6902C49.5563 52.0165 49.9988 52.1998 50.4603 52.1998C50.9218 52.1998 51.3644 52.0165 51.6907 51.6902C52.017 51.3639 52.2003 50.9213 52.2003 50.4598V48.7198H55.6803V52.1998H53.9403C53.7118 52.1998 53.4855 52.2449 53.2744 52.3323C53.0633 52.4197 52.8715 52.5479 52.7099 52.7095C52.5484 52.8711 52.4202 53.0629 52.3328 53.274C52.2453 53.4851 52.2003 53.7113 52.2003 53.9398C52.2003 54.1683 52.2453 54.3946 52.3328 54.6057C52.4202 54.8168 52.5484 55.0086 52.7099 55.1702C52.8715 55.3318 53.0633 55.46 53.2744 55.5474C53.4855 55.6348 53.7118 55.6798 53.9403 55.6798H55.6803V59.1598H53.9403C53.7118 59.1598 53.4855 59.2049 53.2744 59.2923C53.0633 59.3797 52.8715 59.5079 52.7099 59.6695C52.5484 59.8311 52.4202 60.0229 52.3328 60.234C52.2453 60.4451 52.2003 60.6713 52.2003 60.8998C52.2003 61.1283 52.2453 61.3546 52.3328 61.5657C52.4202 61.7768 52.5484 61.9686 52.7099 62.1302C52.8715 62.2918 53.0633 62.42 53.2744 62.5074C53.4855 62.5948 53.7118 62.6398 53.9403 62.6398H55.6803V66.1198H53.9403C53.7118 66.1198 53.4855 66.1649 53.2744 66.2523C53.0633 66.3397 52.8715 66.4679 52.7099 66.6295C52.5484 66.7911 52.4202 66.9829 52.3328 67.194C52.2453 67.4051 52.2003 67.6313 52.2003 67.8598C52.2003 68.0883 52.2453 68.3146 52.3328 68.5257C52.4202 68.7368 52.5484 68.9286 52.7099 69.0902C52.8715 69.2518 53.0633 69.38 53.2744 69.4674C53.4855 69.5548 53.7118 69.5998 53.9403 69.5998H55.6803V73.0798H48.7203C48.7203 72.1569 48.3537 71.2717 47.701 70.6191C47.0484 69.9665 46.1633 69.5998 45.2403 69.5998V62.6398H46.9803C47.4418 62.6398 47.8844 62.4565 48.2107 62.1302C48.537 61.8039 48.7203 61.3613 48.7203 60.8998C48.7203 60.4384 48.537 59.9958 48.2107 59.6695C47.8844 59.3432 47.4418 59.1598 46.9803 59.1598H45.2403C44.3174 59.1598 43.4322 59.5265 42.7796 60.1791C42.127 60.8317 41.7603 61.7169 41.7603 62.6398H38.2803C37.3574 62.6398 36.4722 63.0065 35.8196 63.6591C35.167 64.3117 34.8003 65.1969 34.8003 66.1198V67.8598C34.8003 68.3213 34.9836 68.7639 35.3099 69.0902C35.6363 69.4165 36.0788 69.5998 36.5403 69.5998C37.0018 69.5998 37.4444 69.4165 37.7707 69.0902C38.097 68.7639 38.2803 68.3213 38.2803 67.8598V66.1198H41.7603V69.5998H40.0203C39.5588 69.5998 39.1163 69.7832 38.7899 70.1095C38.4636 70.4358 38.2803 70.8784 38.2803 71.3398C38.2803 71.8013 38.4636 72.2439 38.7899 72.5702C39.1163 72.8965 39.5588 73.0798 40.0203 73.0798H41.7603V76.5598H38.2803C37.3574 76.5598 36.4722 76.9265 35.8196 77.5791C35.167 78.2317 34.8003 79.1169 34.8003 80.0398H33.0603C32.5988 80.0398 32.1563 80.2232 31.8299 80.5495C31.5036 80.8758 31.3203 81.3184 31.3203 81.7798C31.3203 82.2413 31.5036 82.6839 31.8299 83.0102C32.1563 83.3365 32.5988 83.5198 33.0603 83.5198H34.8003C35.7233 83.5198 36.6084 83.1532 37.261 82.5006C37.9137 81.8479 38.2803 80.9628 38.2803 80.0398H45.2403C46.1633 80.0398 47.0484 79.6732 47.701 79.0206C48.3537 78.3679 48.7203 77.4828 48.7203 76.5598H52.2003C52.2003 77.0168 52.2903 77.4694 52.4652 77.8916C52.6401 78.3138 52.8964 78.6974 53.2196 79.0206C53.5427 79.3437 53.9264 79.6001 54.3486 79.7749C54.7708 79.9498 55.2233 80.0398 55.6803 80.0398H62.6403V83.5198H60.9003C60.4388 83.5198 59.9963 83.7032 59.6699 84.0295C59.3436 84.3558 59.1603 84.7984 59.1603 85.2598C59.1603 85.7213 59.3436 86.1639 59.6699 86.4902C59.9963 86.8165 60.4388 86.9998 60.9003 86.9998H85.2603C85.7218 86.9998 86.1644 86.8165 86.4907 86.4902C86.817 86.1639 87.0003 85.7213 87.0003 85.2598C87.0003 84.7984 86.817 84.3558 86.4907 84.0295C86.1644 83.7032 85.7218 83.5198 85.2603 83.5198H80.0403V80.0398C80.9633 80.0398 81.8484 79.6732 82.501 79.0206C83.1537 78.3679 83.5203 77.4828 83.5203 76.5598H85.2603C85.7218 76.5598 86.1644 76.3765 86.4907 76.0502C86.817 75.7239 87.0003 75.2813 87.0003 74.8198C87.0003 74.3584 86.817 73.9158 86.4907 73.5895C86.1644 73.2632 85.7218 73.0798 85.2603 73.0798H83.5203V66.1198C84.4433 66.1198 85.3284 65.7532 85.981 65.1006C86.6337 64.4479 87.0003 63.5628 87.0003 62.6398V53.9398C87.0003 53.4784 86.817 53.0358 86.4907 52.7095C86.1644 52.3832 85.7218 52.1998 85.2603 52.1998ZM59.1603 52.1998V48.7198H69.6003V52.1998C68.6774 52.1998 67.7922 52.5665 67.1396 53.2191C66.487 53.8717 66.1203 54.7569 66.1203 55.6798H59.1603V52.1998ZM59.1603 66.1198V59.1598H69.6003V69.5998H59.1603V66.1198ZM66.1203 83.5198V73.0798H69.6003V83.5198H66.1203ZM76.5603 83.5198H73.0803V76.5598H76.5603V83.5198ZM80.0403 69.5998V73.0798H76.5603C76.5603 72.1569 76.1937 71.2717 75.541 70.6191C74.8884 69.9665 74.0033 69.5998 73.0803 69.5998V59.1598H76.5603V62.6398C76.5603 63.0968 76.6503 63.5494 76.8252 63.9716C77.0001 64.3938 77.2564 64.7774 77.5796 65.1006C77.9027 65.4237 78.2864 65.6801 78.7086 65.8549C79.1308 66.0298 79.5833 66.1198 80.0403 66.1198V69.5998ZM83.5203 62.6398H80.0403V59.1598H83.5203V62.6398Z" fill="white"/>
<path d="M22.6209 55.6802H10.4409V53.9402C10.4409 53.4787 10.2576 53.0361 9.9313 52.7098C9.60499 52.3835 9.16241 52.2002 8.70094 52.2002C8.23946 52.2002 7.79688 52.3835 7.47057 52.7098C7.14425 53.0361 6.96094 53.4787 6.96094 53.9402V55.6802C6.96094 56.6031 7.32758 57.4883 7.9802 58.1409C8.63283 58.7936 9.51798 59.1602 10.4409 59.1602H22.6209C23.0824 59.1602 23.525 58.9769 23.8513 58.6506C24.1776 58.3242 24.3609 57.8817 24.3609 57.4202C24.3609 56.9587 24.1776 56.5161 23.8513 56.1898C23.525 55.8635 23.0824 55.6802 22.6209 55.6802Z" fill="white"/>
<path d="M38.2798 59.1602H40.0198C40.4813 59.1602 40.9239 58.9769 41.2502 58.6506C41.5765 58.3242 41.7598 57.8817 41.7598 57.4202C41.7598 56.9587 41.5765 56.5161 41.2502 56.1898C40.9239 55.8635 40.4813 55.6802 40.0198 55.6802H34.7998V53.9402C34.7998 53.4787 34.6165 53.0361 34.2902 52.7098C33.9639 52.3835 33.5213 52.2002 33.0598 52.2002C32.5984 52.2002 32.1558 52.3835 31.8295 52.7098C31.5032 53.0361 31.3198 53.4787 31.3198 53.9402V55.6802C30.3969 55.6802 29.5117 56.0468 28.8591 56.6995C28.2065 57.3521 27.8398 58.2372 27.8398 59.1602V67.8602C27.8398 68.3217 28.0232 68.7642 28.3495 69.0906C28.6758 69.4169 29.1184 69.6002 29.5798 69.6002C30.0413 69.6002 30.4839 69.4169 30.8102 69.0906C31.1365 68.7642 31.3198 68.3217 31.3198 67.8602V62.6402C32.2428 62.6402 33.128 62.2736 33.7806 61.6209C34.4332 60.9683 34.7998 60.0831 34.7998 59.1602H38.2798Z" fill="white"/>
<path d="M64.3806 66.1201C65.3416 66.1201 66.1206 65.3411 66.1206 64.3801C66.1206 63.4192 65.3416 62.6401 64.3806 62.6401C63.4196 62.6401 62.6406 63.4192 62.6406 64.3801C62.6406 65.3411 63.4196 66.1201 64.3806 66.1201Z" fill="white"/>
<path d="M33.0603 73.0801C34.0213 73.0801 34.8003 72.3011 34.8003 71.3401C34.8003 70.3791 34.0213 69.6001 33.0603 69.6001C32.0993 69.6001 31.3203 70.3791 31.3203 71.3401C31.3203 72.3011 32.0993 73.0801 33.0603 73.0801Z" fill="white"/>
<path d="M27.8398 76.5601V78.3001C27.8398 78.7616 28.0232 79.2041 28.3495 79.5304C28.6758 79.8568 29.1184 80.0401 29.5798 80.0401C30.0413 80.0401 30.4839 79.8568 30.8102 79.5304C31.1365 79.2041 31.3198 78.7616 31.3198 78.3001V74.8201C31.3198 74.3586 31.1365 73.916 30.8102 73.5897C30.4839 73.2634 30.0413 73.0801 29.5798 73.0801C29.1184 73.0801 28.6758 73.2634 28.3495 73.5897C28.0232 73.916 27.8398 74.3586 27.8398 74.8201V76.5601Z" fill="white"/>
<path d="M29.5798 87C30.5408 87 31.3198 86.221 31.3198 85.26C31.3198 84.299 30.5408 83.52 29.5798 83.52C28.6189 83.52 27.8398 84.299 27.8398 85.26C27.8398 86.221 28.6189 87 29.5798 87Z" fill="white"/>
<path d="M43.5017 87C44.4627 87 45.2417 86.221 45.2417 85.26C45.2417 84.299 44.4627 83.52 43.5017 83.52C42.5407 83.52 41.7617 84.299 41.7617 85.26C41.7617 86.221 42.5407 87 43.5017 87Z" fill="white"/>
<path d="M50.4588 87C51.4197 87 52.1988 86.221 52.1988 85.26C52.1988 84.299 51.4197 83.52 50.4588 83.52C49.4978 83.52 48.7188 84.299 48.7188 85.26C48.7188 86.221 49.4978 87 50.4588 87Z" fill="white"/>
<path d="M8.31633 24.3577H16.0463C20.6312 24.3577 24.3635 20.6689 24.3635 16.1336V8.22446C24.3635 3.69089 20.6312 0.00296416 16.0463 0.00296416H8.3198C6.53447 -0.00217379 4.79486 0.567185 3.35804 1.6269C1.92123 2.68661 0.863449 4.18045 0.341037 5.88764C0.234316 6.24229 0.152343 6.60392 0.0957013 6.96992C0.0316149 7.38386 -0.000378301 7.80212 3.37481e-06 8.22098V16.1302C3.37481e-06 20.6698 3.73143 24.3577 8.31633 24.3577ZM3.654 8.22446C3.65329 7.46335 3.84705 6.71468 4.21689 6.04946C4.56463 5.42444 5.05239 4.88843 5.64195 4.48346C6.42877 3.94261 7.36156 3.65403 8.31633 3.65609H16.0463C18.6171 3.65609 20.7095 5.70494 20.7095 8.22359V16.1328C20.7095 18.6558 18.6215 20.7029 16.0454 20.7029H8.32067C5.74895 20.7029 3.65748 18.6523 3.65748 16.1328L3.654 8.22446Z" fill="white"/>
<path d="M78.6869 0.00247588H70.9604C69.1751 -0.00266207 67.4355 0.566697 65.9987 1.62641C64.5619 2.68612 63.5041 4.17996 62.9817 5.88716C62.8749 6.24181 62.793 6.60343 62.7363 6.96944C62.6722 7.38337 62.6402 7.80163 62.6406 8.2205V16.1297C62.6406 20.6658 66.3721 24.3538 70.957 24.3538H78.6869C83.2718 24.3538 87.0041 20.665 87.0041 16.1297V8.22398C87.0006 3.69041 83.2683 0.00247588 78.6869 0.00247588ZM83.3501 16.1331C83.3501 18.6561 81.2578 20.7033 78.686 20.7033H70.9613C68.3896 20.7033 66.2981 18.6527 66.2981 16.1331V8.22398C66.2974 7.46286 66.4912 6.71419 66.861 6.04898C67.2087 5.42395 67.6965 4.88795 68.2861 4.48298C69.0729 3.94212 70.0057 3.65355 70.9604 3.65561H78.6869C81.2578 3.65561 83.3501 5.70446 83.3501 8.22311V16.1331Z" fill="white"/>
<path d="M16.0463 62.6426H8.3198C6.53447 62.6375 4.79486 63.2068 3.35804 64.2665C1.92123 65.3263 0.863449 66.8201 0.341037 68.5273C0.234316 68.8819 0.152343 69.2436 0.0957013 69.6096C0.0316149 70.0235 -0.000378301 70.4418 3.37481e-06 70.8606V78.7698C3.37481e-06 83.306 3.73143 86.9939 8.31633 86.9939H16.0463C20.6312 86.9939 24.3635 83.3051 24.3635 78.7698V70.8641C24.36 66.3305 20.6277 62.6426 16.0463 62.6426ZM20.7095 78.7733C20.7095 81.2963 18.6215 83.3434 16.0454 83.3434H8.32067C5.74895 83.3434 3.65748 81.2928 3.65748 78.7733V70.8641C3.65677 70.103 3.85052 69.3543 4.22036 68.6891C4.5681 68.0641 5.05587 67.5281 5.64542 67.1231C6.43224 66.5823 7.36503 66.2937 8.3198 66.2957H16.0463C18.6171 66.2957 20.7095 68.3446 20.7095 70.8632V78.7733Z" fill="white"/>
<path d="M9.81498 17.4H14.5452C16.119 17.4 17.4005 16.1437 17.4005 14.6012V9.75702C17.4005 8.21451 16.119 6.95997 14.5452 6.95997H9.81324C9.22835 6.95885 8.65697 7.13576 8.17503 7.46718C7.8149 7.71458 7.51709 8.04217 7.30503 8.42418C7.07773 8.8317 6.95797 9.29039 6.95703 9.75702V14.6003C6.9579 16.1437 8.23941 17.4 9.81498 17.4Z" fill="white"/>
<path d="M77.1858 6.95997H72.4539C71.869 6.95885 71.2976 7.13576 70.8157 7.46718C70.4555 7.71458 70.1577 8.04217 69.9457 8.42418C69.7184 8.8317 69.5986 9.29039 69.5977 9.75702V14.6003C69.5977 16.1428 70.8792 17.3991 72.4547 17.3991H77.1849C78.7588 17.3991 80.0403 16.1428 80.0403 14.6003V9.75702C80.0411 8.21451 78.7596 6.95997 77.1858 6.95997Z" fill="white"/>
<path d="M14.5452 69.6001H9.81324C9.22835 69.599 8.65697 69.7759 8.17503 70.1073C7.8149 70.3547 7.51709 70.6823 7.30503 71.0643C7.07773 71.4718 6.95797 71.9305 6.95703 72.3971V77.2404C6.95703 78.783 8.23854 80.0392 9.81411 80.0392H14.5443C16.1181 80.0392 17.3996 78.783 17.3996 77.2404V72.3971C17.4005 70.8546 16.119 69.6001 14.5452 69.6001Z" fill="white"/>
</g>
<defs>
<clipPath id="clip0_10600_12414">
<rect width="87" height="87" fill="white"/>
</clipPath>
</defs>
</svg>
