<svg width="184" height="184" viewBox="0 0 184 184" fill="none" xmlns="http://www.w3.org/2000/svg">
<circle cx="92.548" cy="92.069" r="66.5714" fill="white"/>
<mask id="path-3-inside-1_10530_8516" fill="white">
<path d="M151.752 92.0689C154.514 92.0689 156.772 94.3108 156.559 97.064C156.034 103.847 154.44 110.516 151.829 116.821C149.217 123.126 145.628 128.968 141.203 134.136C139.407 136.234 136.225 136.222 134.272 134.27L100.607 100.604C97.4571 97.4546 99.6879 92.0689 104.142 92.0689L151.752 92.0689Z"/>
</mask>
<path d="M151.752 92.0689C154.514 92.0689 156.772 94.3108 156.559 97.064C156.034 103.847 154.44 110.516 151.829 116.821C149.217 123.126 145.628 128.968 141.203 134.136C139.407 136.234 136.225 136.222 134.272 134.27L100.607 100.604C97.4571 97.4546 99.6879 92.0689 104.142 92.0689L151.752 92.0689Z" fill="#DEE2E6" stroke="white" stroke-width="0.96132" mask="url(#path-3-inside-1_10530_8516)"/>
<mask id="path-4-inside-2_10530_8516" fill="white">
<path d="M134.271 134.27C136.224 136.222 136.235 139.405 134.138 141.201C128.97 145.626 123.128 149.215 116.823 151.826C110.518 154.438 103.849 156.031 97.0654 156.557C94.3122 156.77 92.0703 154.511 92.0703 151.75L92.0703 104.14C92.0703 99.6856 97.456 97.4548 100.606 100.605L134.271 134.27Z"/>
</mask>
<path d="M134.271 134.27C136.224 136.222 136.235 139.405 134.138 141.201C128.97 145.626 123.128 149.215 116.823 151.826C110.518 154.438 103.849 156.031 97.0654 156.557C94.3122 156.77 92.0703 154.511 92.0703 151.75L92.0703 104.14C92.0703 99.6856 97.456 97.4548 100.606 100.605L134.271 134.27Z" fill="#DEE2E6" stroke="white" stroke-width="0.96132" mask="url(#path-4-inside-2_10530_8516)"/>
<mask id="path-5-inside-3_10530_8516" fill="white">
<path d="M92.0693 151.75C92.0693 154.511 89.8274 156.77 87.0742 156.556C80.2908 156.031 73.6221 154.438 67.317 151.826C61.012 149.214 55.1698 145.626 50.0017 141.201C47.9041 139.405 47.916 136.222 49.8686 134.27L83.5337 100.604C86.6836 97.4546 92.0693 99.6855 92.0693 104.14L92.0693 151.75Z"/>
</mask>
<path d="M92.0693 151.75C92.0693 154.511 89.8274 156.77 87.0742 156.556C80.2908 156.031 73.6221 154.438 67.317 151.826C61.012 149.214 55.1698 145.626 50.0017 141.201C47.9041 139.405 47.916 136.222 49.8686 134.27L83.5337 100.604C86.6836 97.4546 92.0693 99.6855 92.0693 104.14L92.0693 151.75Z" fill="#DEE2E6" stroke="white" stroke-width="0.96132" mask="url(#path-5-inside-3_10530_8516)"/>
<mask id="path-6-inside-4_10530_8516" fill="white">
<path d="M49.9481 134.35C47.9954 136.303 44.8131 136.315 43.0171 134.217C38.592 129.049 35.0031 123.207 32.3915 116.902C29.7799 110.597 28.1866 103.928 27.6611 97.1445C27.4479 94.3913 29.7066 92.1494 32.468 92.1494L80.0777 92.1494C84.5322 92.1494 86.763 97.5351 83.6132 100.685L49.9481 134.35Z"/>
</mask>
<path d="M49.9481 134.35C47.9954 136.303 44.8131 136.315 43.0171 134.217C38.592 129.049 35.0031 123.207 32.3915 116.902C29.7799 110.597 28.1866 103.928 27.6611 97.1445C27.4479 94.3913 29.7066 92.1494 32.468 92.1494L80.0777 92.1494C84.5322 92.1494 86.763 97.5351 83.6132 100.685L49.9481 134.35Z" fill="#DEE2E6" stroke="white" stroke-width="0.96132" mask="url(#path-6-inside-4_10530_8516)"/>
<mask id="path-7-inside-5_10530_8516" fill="white">
<path d="M32.4706 91.9887C29.7091 91.9887 27.4505 89.7468 27.6637 86.9936C28.1891 80.2102 29.7824 73.5415 32.3941 67.2364C35.0057 60.9314 38.5946 55.0892 43.0196 49.9211C44.8156 47.8236 47.998 47.8354 49.9506 49.788L83.6158 83.4532C86.7656 86.603 84.5347 91.9887 80.0802 91.9887L32.4706 91.9887Z"/>
</mask>
<path d="M32.4706 91.9887C29.7091 91.9887 27.4505 89.7468 27.6637 86.9936C28.1891 80.2102 29.7824 73.5415 32.3941 67.2364C35.0057 60.9314 38.5946 55.0892 43.0196 49.9211C44.8156 47.8236 47.998 47.8354 49.9506 49.788L83.6158 83.4532C86.7656 86.603 84.5347 91.9887 80.0802 91.9887L32.4706 91.9887Z" fill="#DEE2E6" stroke="white" stroke-width="0.96132" mask="url(#path-7-inside-5_10530_8516)"/>
<mask id="path-8-inside-6_10530_8516" fill="white">
<path d="M49.8697 49.868C47.917 47.9154 47.9052 44.733 50.0028 42.937C55.1709 38.5119 61.013 34.9231 67.3181 32.3114C73.6231 29.6998 80.2919 28.1065 87.0752 27.5811C89.8284 27.3678 92.0703 29.6265 92.0703 32.3879L92.0703 79.9976C92.0703 84.4521 86.6846 86.6829 83.5348 83.5331L49.8697 49.868Z"/>
</mask>
<path d="M49.8697 49.868C47.917 47.9154 47.9052 44.733 50.0028 42.937C55.1709 38.5119 61.013 34.9231 67.3181 32.3114C73.6231 29.6998 80.2919 28.1065 87.0752 27.5811C89.8284 27.3678 92.0703 29.6265 92.0703 32.3879L92.0703 79.9976C92.0703 84.4521 86.6846 86.6829 83.5348 83.5331L49.8697 49.868Z" fill="#DEE2E6" stroke="white" stroke-width="0.96132" mask="url(#path-8-inside-6_10530_8516)"/>
<mask id="path-9-inside-7_10530_8516" fill="white">
<path d="M92.1495 32.3075C92.1495 29.546 94.3914 27.2874 97.1446 27.5006C103.928 28.026 110.597 29.6193 116.902 32.231C123.207 34.8426 129.049 38.4315 134.217 42.8565C136.315 44.6525 136.303 47.8349 134.35 49.7875L100.685 83.4527C97.5352 86.6025 92.1495 84.3717 92.1495 79.9171L92.1495 32.3075Z"/>
</mask>
<path d="M92.1495 32.3075C92.1495 29.546 94.3914 27.2874 97.1446 27.5006C103.928 28.026 110.597 29.6193 116.902 32.231C123.207 34.8426 129.049 38.4315 134.217 42.8565C136.315 44.6525 136.303 47.8349 134.35 49.7875L100.685 83.4527C97.5352 86.6025 92.1495 84.3717 92.1495 79.9171L92.1495 32.3075Z" fill="#DEE2E6" stroke="white" stroke-width="0.96132" mask="url(#path-9-inside-7_10530_8516)"/>
<mask id="path-10-inside-8_10530_8516" fill="white">
<path d="M134.189 49.7876C136.141 47.835 139.324 47.8231 141.12 49.9207C145.545 55.0888 149.134 60.931 151.745 67.236C154.357 73.5411 155.95 80.2098 156.476 86.9932C156.689 89.7464 154.43 91.9883 151.669 91.9883L104.059 91.9883C99.6046 91.9883 97.3737 86.6026 100.524 83.4527L134.189 49.7876Z"/>
</mask>
<path d="M134.189 49.7876C136.141 47.835 139.324 47.8231 141.12 49.9207C145.545 55.0888 149.134 60.931 151.745 67.236C154.357 73.5411 155.95 80.2098 156.476 86.9932C156.689 89.7464 154.43 91.9883 151.669 91.9883L104.059 91.9883C99.6046 91.9883 97.3737 86.6026 100.524 83.4527L134.189 49.7876Z" fill="#DEE2E6" stroke="white" stroke-width="0.96132" mask="url(#path-10-inside-8_10530_8516)"/>
<path d="M98.8331 43.7768C95.7161 48.8964 88.2839 48.8964 85.1669 43.7768L74.289 25.9103C71.0431 20.5791 74.8806 13.75 81.1221 13.75L102.878 13.75C109.119 13.75 112.957 20.5792 109.711 25.9103L98.8331 43.7768Z" fill="#6C00CB"/>
</svg>
