<svg width="66" height="160" viewBox="0 0 66 160" fill="none" xmlns="http://www.w3.org/2000/svg">
<g clip-path="url(#clip0_10618_21821)">
<path d="M17.4957 44.7038L17.4957 58.174C17.4957 59.9529 18.1969 61.6589 19.4449 62.9168C20.6929 64.1747 22.3856 64.8813 24.1506 64.8813C25.9155 64.8813 27.6082 64.1747 28.8562 62.9168C30.1042 61.6589 30.8054 59.9529 30.8054 58.174L30.8054 45.0746L19.0675 45.0746C18.5223 45.0736 17.9847 44.9468 17.4957 44.7038Z" fill="#6C00CB"/>
<path d="M48.2846 45.0746L48.2846 58.6836C48.2846 60.1701 48.8705 61.5957 49.9134 62.6469C50.9564 63.698 52.3708 64.2886 53.8457 64.2886C55.3207 64.2886 56.7351 63.698 57.7781 62.6469C58.821 61.5957 59.4069 60.1701 59.4069 58.6836L59.4069 41.914C56.8991 43.9611 53.7693 45.0771 50.5421 45.0746L48.2846 45.0746Z" fill="#6C00CB"/>
<path d="M9.30422 31.0672C10.7408 31.0686 12.1518 31.4509 13.3954 32.1757C14.6391 32.9005 15.6717 33.9423 16.3895 35.1965C17.3142 32.8812 18.9042 30.8971 20.9555 29.4988C23.0068 28.1006 25.4258 27.352 27.9022 27.349L36.2214 27.349C34.2198 26.1192 32.5654 24.3916 31.4171 22.3318C30.2689 20.272 29.6652 17.9492 29.6641 15.5866L29.6641 11.8028C29.6641 11.5352 29.7696 11.2786 29.9574 11.0894C30.1451 10.9001 30.3997 10.7938 30.6652 10.7938C30.9308 10.7938 31.1854 10.9001 31.3731 11.0894C31.5609 11.2786 31.6663 11.5352 31.6663 11.8028L31.6663 15.5866C31.6703 18.7049 32.9011 21.6944 35.0889 23.8995C37.2767 26.1045 40.2427 27.345 43.3367 27.349L43.5144 27.349C43.7799 27.349 44.0345 27.4553 44.2223 27.6445C44.41 27.8338 44.5155 28.0904 44.5155 28.358C44.5155 28.6256 44.41 28.8823 44.2223 29.0715C44.0345 29.2607 43.7799 29.367 43.5144 29.367L27.8997 29.367C25.1416 29.3697 22.4973 30.475 20.5468 32.4404C18.5963 34.4058 17.4991 37.0707 17.4957 39.8505L17.4957 41.4725C17.4957 41.8927 17.6613 42.2956 17.9561 42.5927C18.2508 42.8897 18.6506 43.0566 19.0675 43.0566L50.5421 43.0566C52.3021 43.0566 54.0409 42.6699 55.6375 41.9237C57.2341 41.1775 58.6502 40.0895 59.7873 38.7356C59.955 38.5363 60.1202 38.3345 60.2728 38.1252C60.3379 38.0394 60.398 37.9511 60.458 37.8729C60.6107 37.656 60.7584 37.4365 60.896 37.2095C60.9411 37.1363 60.9836 37.0607 61.0262 36.985C61.1663 36.7327 61.299 36.4956 61.4241 36.2459L61.4842 36.1223C61.6243 35.8297 61.7495 35.532 61.8646 35.2293C61.8796 35.189 61.8971 35.1511 61.9121 35.1108C62.0248 34.8055 62.1249 34.4927 62.215 34.1774C62.215 34.1371 62.2375 34.0967 62.2475 34.0564C62.3351 33.7385 62.4077 33.4182 62.4678 33.0953L62.4903 32.9692C62.5478 32.6438 62.5929 32.3133 62.6229 31.9828C62.6229 31.945 62.6229 31.9072 62.6229 31.8668C62.6505 31.5238 62.668 31.1807 62.668 30.8351C62.668 30.0027 62.6279 29.1829 62.5629 28.3681C61.3115 12.5142 48.1195 3.11314e-05 32.0743 2.97287e-05L28.4353 2.94105e-05C21.7227 0.0100355 15.2879 2.7019 10.5412 7.48562C5.79442 12.2693 3.123 18.7547 3.11241 25.5202L3.11241 33.9302C3.87939 33.0322 4.8296 32.3115 5.89818 31.8174C6.96677 31.3233 8.12855 31.0674 9.30422 31.0672Z" fill="#6C00CB"/>
<path d="M32.8076 58.0983C32.8076 59.8993 33.5174 61.6265 34.7809 62.9C36.0445 64.1735 37.7582 64.8889 39.545 64.8889C41.3319 64.8889 43.0456 64.1735 44.3091 62.9C45.5726 61.6265 46.2824 59.8993 46.2824 58.0983L46.2824 45.0822L32.8076 45.0822L32.8076 58.0983Z" fill="#6C00CB"/>
<path d="M9.30422 55.0486C10.9456 55.0466 12.5191 54.3884 13.6794 53.2184C14.8398 52.0484 15.4922 50.4622 15.4935 48.808L15.4935 39.3233C15.461 37.6903 14.7944 36.1352 13.637 34.9918C12.4796 33.8485 10.9236 33.2081 9.30297 33.2081C7.68236 33.2081 6.12634 33.8485 4.96893 34.9918C3.81152 36.1352 3.14499 37.6903 3.11241 39.3233L3.11241 48.808C3.1144 50.4625 3.76738 52.0486 4.92814 53.2186C6.0889 54.3885 7.66266 55.0466 9.30422 55.0486Z" fill="#6C00CB"/>
<path d="M22.9735 118.517H33.0873V107.483C33.0878 106.377 33.3155 105.283 33.7564 104.267C34.1973 103.252 34.8421 102.337 35.6512 101.579L39.5222 82.1634C39.7013 80.6793 39.2887 79.1845 38.3729 77.9999C37.4571 76.8152 36.1111 76.0353 34.624 75.8274C33.1369 75.6195 31.6272 76.0003 30.419 76.888C29.2108 77.7757 28.4004 79.0995 28.1619 80.5753L22.7965 109.2C22.7622 109.44 22.642 109.659 22.458 109.818C22.2741 109.977 22.0387 110.064 21.7952 110.064C21.5517 110.064 21.3164 109.977 21.1324 109.818C20.9485 109.659 20.8283 109.44 20.794 109.2L15.4159 80.4721C15.3113 79.7297 15.0608 79.0149 14.6787 78.3688C14.2967 77.7227 13.7905 77.1578 13.189 76.7064C12.5876 76.255 11.9028 75.9259 11.1736 75.738C10.4444 75.55 9.68521 75.5069 8.93928 75.611C8.19334 75.7151 7.47532 75.9644 6.8262 76.3447C6.17707 76.7251 5.60956 77.2289 5.15606 77.8276C4.70257 78.4262 4.37196 79.1079 4.18314 79.8337C3.99431 80.5595 3.95098 81.3152 4.05557 82.0577C5.53978 93.0812 6.00445 93.3679 6.8262 99.1112C8.90459 113.656 8.93928 115.556 9.97467 126.004C11.2906 123.73 13.1846 121.841 15.4664 120.527C17.7481 119.213 20.3372 118.519 22.9735 118.517Z" fill="#E9ECEF"/>
<path d="M55.6134 130.801C54.2602 130.801 52.9282 130.466 51.7368 129.827C50.5454 129.189 49.5317 128.266 48.7865 127.142C47.9802 129.291 46.534 131.143 44.6413 132.452C42.7485 133.761 40.4994 134.463 38.1948 134.466H34.1493C35.9982 135.631 37.5213 137.243 38.5773 139.151C39.6333 141.06 40.1879 143.202 40.1898 145.381V148.904C40.1898 149.171 40.0832 149.427 39.8936 149.616C39.7039 149.805 39.4466 149.911 39.1784 149.911C38.9102 149.911 38.6529 149.805 38.4632 149.616C38.2736 149.427 38.167 149.171 38.167 148.904V145.381C38.1603 142.488 37.0014 139.715 34.9443 137.672C32.8873 135.628 30.0999 134.479 27.1935 134.478C26.9253 134.478 26.668 134.372 26.4783 134.183C26.2887 133.994 26.1821 133.738 26.1821 133.471C26.1821 133.204 26.2887 132.948 26.4783 132.76C26.668 132.571 26.9253 132.465 27.1935 132.465H38.1973C40.3966 132.466 42.5241 131.686 44.1974 130.265C45.0242 129.564 45.7223 128.725 46.2606 127.786C47.0206 126.459 47.4352 124.964 47.4667 123.437C47.4667 123.369 47.4667 123.301 47.4667 123.231C47.4641 123.09 47.4497 122.951 47.4237 122.813C47.4237 122.78 47.4237 122.747 47.4237 122.715C47.3026 122.103 46.9723 121.553 46.4892 121.157C46.006 120.761 45.3998 120.544 44.7739 120.543H22.9735C19.5306 120.548 16.2302 121.912 13.7959 124.335C11.3616 126.759 9.99202 130.044 9.98734 133.471C9.98734 141.17 12.8976 148.127 18.1796 153.057C20.7762 155.461 23.8388 157.313 27.1796 158.497C30.5205 159.682 34.0692 160.175 37.6082 159.945C51.1582 159.072 61.7752 147.362 61.7752 133.308V128.023C61.0073 128.897 60.0599 129.598 58.997 130.077C57.9341 130.556 56.7803 130.803 55.6134 130.801Z" fill="#E9ECEF"/>
<path d="M55.6134 107.8C53.9791 107.802 52.4123 108.449 51.2567 109.6C50.1011 110.75 49.451 112.309 49.449 113.936V122.574C49.4812 122.788 49.4981 123.004 49.4996 123.221C49.4996 123.271 49.4996 123.324 49.4996 123.374C49.6796 124.93 50.4513 126.359 51.6563 127.367C52.8613 128.375 54.4082 128.885 55.9793 128.793C57.5505 128.701 59.0267 128.014 60.105 126.873C61.1833 125.732 61.7818 124.223 61.7778 122.657V113.934C61.7757 112.307 61.1256 110.748 59.9699 109.598C58.8142 108.448 57.2474 107.802 55.6134 107.8Z" fill="#E9ECEF"/>
<path d="M39.2719 101.684C39.1809 101.715 39.0966 101.747 39.0191 101.783C38.9306 101.818 38.8421 101.853 38.7662 101.893C38.6904 101.934 38.5842 101.976 38.4957 102.022L38.2631 102.145C38.167 102.198 38.0735 102.256 37.9824 102.316C37.8914 102.377 37.8509 102.397 37.7852 102.442C37.7195 102.487 37.5905 102.583 37.497 102.658C37.4413 102.701 37.3857 102.741 37.3326 102.787C36.6415 103.361 36.0854 104.079 35.7035 104.891C35.3217 105.702 35.1235 106.587 35.1228 107.483V118.517H44.7991C45.7446 118.515 46.6685 118.798 47.449 119.33V107.483C47.4472 105.966 46.8808 104.502 45.8592 103.376C44.8377 102.249 43.4332 101.539 41.9167 101.382C41.7076 101.36 41.4975 101.349 41.2871 101.35C41.0912 101.35 40.8954 101.36 40.7005 101.38C40.6221 101.38 40.5437 101.4 40.4679 101.41C40.392 101.42 40.2403 101.44 40.1291 101.463C40.0178 101.486 39.9445 101.503 39.8535 101.523C39.7625 101.544 39.6664 101.569 39.5728 101.596L39.2719 101.684Z" fill="#E9ECEF"/>
</g>
<defs>
<clipPath id="clip0_10618_21821">
<rect width="66" height="160" fill="white"/>
</clipPath>
</defs>
</svg>
