<?xml version="1.0" encoding="UTF-8"?>
<svg id="Layer_1" xmlns="http://www.w3.org/2000/svg" version="1.1" xmlns:xlink="http://www.w3.org/1999/xlink" viewBox="0 0 129.6 142.9">
  <!-- Generator: Adobe Illustrator 29.1.0, SVG Export Plug-In . SVG Version: 2.1.0 Build 142)  -->
  <defs>
    <style>
      .st0 {
        mask: url(#mask-15);
      }

      .st1 {
        mask: url(#mask-5);
      }

      .st2 {
        mask: url(#mask-13);
      }

      .st3 {
        mask: url(#mask-1);
      }

      .st4 {
        mask: url(#mask-10);
      }

      .st5 {
        mask: url(#mask-6);
      }

      .st6 {
        mask: url(#mask-7);
      }

      .st7 {
        mask: url(#mask-18);
      }

      .st8 {
        fill: #fff;
      }

      .st9 {
        mask: url(#mask-17);
      }

      .st10 {
        mask: url(#mask);
      }

      .st11 {
        mask: url(#mask-8);
      }

      .st12 {
        mask: url(#mask-2);
      }

      .st13 {
        fill: #dee2e6;
      }

      .st13, .st14 {
        stroke: #fff;
        stroke-width: .8px;
      }

      .st15 {
        mask: url(#mask-9);
      }

      .st14 {
        fill: #e9ecef;
      }

      .st16 {
        mask: url(#mask-16);
      }

      .st17 {
        mask: url(#mask-19);
      }

      .st18 {
        mask: url(#mask-11);
      }

      .st19 {
        mask: url(#mask-12);
      }

      .st20 {
        mask: url(#mask-4);
      }

      .st21 {
        fill: #6c00cb;
      }

      .st22 {
        mask: url(#mask-14);
      }

      .st23 {
        mask: url(#mask-3);
      }
    </style>
    <mask id="mask" x="72.8" y="77.9" width="54.4" height="30.8" maskUnits="userSpaceOnUse">
      <g id="path-2-inside-1_10618_21757">
        <path class="st8" d="M123.7,78.2c1.7,0,3.1,1.4,3.1,3.1-.4,8.8-2.7,17.4-6.8,25.2-.8,1.5-2.7,2.1-4.2,1.2l-41.1-23.7c-2.8-1.6-1.6-5.8,1.6-5.8h47.4Z"/>
      </g>
    </mask>
    <mask id="mask-1" x="72.9" y="48" width="54.4" height="30.8" maskUnits="userSpaceOnUse">
      <g id="path-3-inside-2_10618_21757">
        <path class="st8" d="M115.9,48.8c1.5-.9,3.4-.4,4.2,1.2,4,7.8,6.3,16.4,6.8,25.2,0,1.7-1.3,3.1-3.1,3.1h-47.4c-3.2,0-4.3-4.2-1.6-5.8l41.1-23.7Z"/>
      </g>
    </mask>
    <mask id="mask-2" x="69.7" y="25" width="48.1" height="48.1" maskUnits="userSpaceOnUse">
      <g id="path-4-inside-3_10618_21757">
        <path class="st8" d="M94.3,27c.9-1.5,2.8-2,4.2-1.1,7.4,4.8,13.7,11.1,18.5,18.5.9,1.5.4,3.4-1.1,4.2l-41.1,23.7c-2.8,1.6-5.9-1.5-4.3-4.3l23.7-41.1Z"/>
      </g>
    </mask>
    <mask id="mask-3" x="64.2" y="15.7" width="30.8" height="54.4" maskUnits="userSpaceOnUse">
      <g id="path-5-inside-4_10618_21757">
        <path class="st8" d="M64.6,19.1c0-1.7,1.4-3.1,3.1-3.1,8.8.4,17.4,2.7,25.2,6.8,1.5.8,2.1,2.7,1.2,4.2l-23.7,41.1c-1.6,2.8-5.8,1.6-5.8-1.6V19.1Z"/>
      </g>
    </mask>
    <mask id="mask-4" x="34.3" y="15.6" width="30.8" height="54.4" maskUnits="userSpaceOnUse">
      <g id="path-6-inside-5_10618_21757">
        <path class="st8" d="M35.1,27c-.9-1.5-.4-3.4,1.2-4.2,7.8-4,16.4-6.3,25.2-6.8,1.7,0,3.1,1.3,3.1,3.1v47.4c0,3.2-4.2,4.3-5.8,1.6l-23.7-41.1Z"/>
      </g>
    </mask>
    <mask id="mask-5" x="11.4" y="25" width="48.1" height="48.1" maskUnits="userSpaceOnUse">
      <g id="path-7-inside-6_10618_21757">
        <path class="st8" d="M13.3,48.6c-1.5-.9-2-2.8-1.1-4.2,4.8-7.4,11.1-13.7,18.5-18.5,1.5-.9,3.4-.4,4.2,1.1l23.7,41.1c1.6,2.8-1.5,5.9-4.3,4.3L13.3,48.6Z"/>
      </g>
    </mask>
    <mask id="mask-6" x="2" y="47.9" width="54.4" height="30.8" maskUnits="userSpaceOnUse">
      <g id="path-8-inside-7_10618_21757">
        <path class="st8" d="M5.5,78.3c-1.7,0-3.1-1.4-3.1-3.1.4-8.8,2.7-17.4,6.8-25.2.8-1.5,2.7-2.1,4.2-1.2l41.1,23.7c2.8,1.6,1.6,5.8-1.6,5.8H5.5Z"/>
      </g>
    </mask>
    <mask id="mask-7" x="2" y="77.8" width="54.4" height="30.8" maskUnits="userSpaceOnUse">
      <g id="path-9-inside-8_10618_21757">
        <path class="st8" d="M13.3,107.7c-1.5.9-3.4.4-4.2-1.2-4-7.8-6.3-16.4-6.8-25.2,0-1.7,1.3-3.1,3.1-3.1h47.4c3.2,0,4.3,4.2,1.6,5.8l-41.1,23.7Z"/>
      </g>
    </mask>
    <mask id="mask-8" x="11.4" y="83.3" width="48.1" height="48.1" maskUnits="userSpaceOnUse">
      <g id="path-10-inside-9_10618_21757">
        <path class="st8" d="M35,129.5c-.9,1.5-2.8,2-4.2,1.1-7.4-4.8-13.7-11.1-18.5-18.5-.9-1.5-.4-3.4,1.1-4.2l41.1-23.7c2.8-1.6,5.9,1.5,4.3,4.3l-23.7,41.1Z"/>
      </g>
    </mask>
    <mask id="mask-9" x="34.2" y="86.4" width="30.8" height="54.4" maskUnits="userSpaceOnUse">
      <g id="path-11-inside-10_10618_21757">
        <path class="st8" d="M64.6,137.4c0,1.7-1.4,3.1-3.1,3.1-8.8-.4-17.4-2.7-25.2-6.8-1.5-.8-2.1-2.7-1.2-4.2l23.7-41.1c1.6-2.8,5.8-1.6,5.8,1.6v47.4Z"/>
      </g>
    </mask>
    <mask id="mask-10" x="64.1" y="86.5" width="30.8" height="54.4" maskUnits="userSpaceOnUse">
      <g id="path-12-inside-11_10618_21757">
        <path class="st8" d="M94.1,129.5c.9,1.5.4,3.4-1.2,4.2-7.8,4-16.4,6.3-25.2,6.8-1.7,0-3.1-1.3-3.1-3.1v-47.4c0-3.2,4.2-4.3,5.8-1.6l23.7,41.1Z"/>
      </g>
    </mask>
    <mask id="mask-11" x="69.7" y="83.3" width="48.1" height="48.1" maskUnits="userSpaceOnUse">
      <g id="path-13-inside-12_10618_21757">
        <path class="st8" d="M115.9,107.9c1.5.9,2,2.8,1.1,4.2-4.8,7.4-11.1,13.7-18.5,18.5-1.5.9-3.4.4-4.2-1.1l-23.7-41.1c-1.6-2.8,1.5-5.9,4.3-4.3l41.1,23.7Z"/>
      </g>
    </mask>
    <mask id="mask-12" x="64.2" y="77.9" width="39.1" height="39.1" maskUnits="userSpaceOnUse">
      <g id="path-15-inside-13_10618_21757">
        <path class="st8" d="M100.6,78.3c1.3,0,2.4,1.1,2.3,2.3-.3,4.2-1.2,8.4-2.8,12.3-1.9,4.7-4.8,8.9-8.3,12.4-3.6,3.6-7.8,6.4-12.5,8.3-3.9,1.6-8.1,2.6-12.3,2.8-1.3,0-2.3-1-2.3-2.3v-33.7c0-1.3,1.1-2.3,2.3-2.3h33.7Z"/>
      </g>
    </mask>
    <mask id="mask-13" x="64.2" y="39.6" width="39.1" height="39.1" maskUnits="userSpaceOnUse">
      <g id="path-16-inside-14_10618_21757">
        <path class="st8" d="M64.6,42.2c0-1.3,1.1-2.4,2.3-2.3,4.2.3,8.4,1.2,12.3,2.8,4.7,1.9,8.9,4.8,12.5,8.3,3.6,3.6,6.4,7.8,8.3,12.4,1.6,3.9,2.6,8.1,2.8,12.3,0,1.3-1,2.3-2.3,2.3h-33.7c-1.3,0-2.3-1.1-2.3-2.3v-33.7Z"/>
      </g>
    </mask>
    <mask id="mask-14" x="25.9" y="39.6" width="39.1" height="39.1" maskUnits="userSpaceOnUse">
      <g id="path-17-inside-15_10618_21757">
        <path class="st8" d="M28.6,78.3c-1.3,0-2.4-1.1-2.3-2.3.3-4.2,1.2-8.4,2.8-12.3,1.9-4.7,4.8-8.9,8.3-12.4,3.6-3.6,7.8-6.4,12.4-8.3,3.9-1.6,8.1-2.6,12.3-2.8,1.3,0,2.3,1,2.3,2.3v33.7c0,1.3-1.1,2.3-2.3,2.3H28.6Z"/>
      </g>
    </mask>
    <mask id="mask-15" x="25.9" y="77.9" width="39.1" height="39.1" maskUnits="userSpaceOnUse">
      <g id="path-18-inside-16_10618_21757">
        <path class="st8" d="M64.6,114.3c0,1.3-1.1,2.4-2.3,2.3-4.2-.3-8.4-1.2-12.3-2.8-4.7-1.9-8.9-4.8-12.4-8.3-3.6-3.6-6.4-7.8-8.3-12.4-1.6-3.9-2.6-8.1-2.8-12.3,0-1.3,1-2.3,2.3-2.3h33.7c1.3,0,2.3,1.1,2.3,2.3v33.7Z"/>
      </g>
    </mask>
    <mask id="mask-16" x="64.4" y="78" width="22.2" height="22.2" maskUnits="userSpaceOnUse">
      <g id="path-20-inside-17_10618_21757">
        <path class="st8" d="M84,78.4c1.3,0,2.4,1.1,2.2,2.3-.2,2-.7,4-1.5,5.9-1.1,2.6-2.7,5-4.7,7-2,2-4.4,3.6-7,4.7-1.9.8-3.9,1.3-5.9,1.5-1.3.1-2.3-.9-2.3-2.2v-16.8c0-1.3,1.1-2.3,2.3-2.3h16.8Z"/>
      </g>
    </mask>
    <mask id="mask-17" x="64.4" y="56.6" width="22.2" height="22.2" maskUnits="userSpaceOnUse">
      <g id="path-21-inside-18_10618_21757">
        <path class="st8" d="M64.8,59.3c0-1.3,1.1-2.4,2.3-2.2,2,.2,4,.7,5.9,1.5,2.6,1.1,5,2.7,7,4.7s3.6,4.4,4.7,7c.8,1.9,1.3,3.9,1.5,5.9.1,1.3-.9,2.3-2.2,2.3h-16.8c-1.3,0-2.3-1.1-2.3-2.3v-16.8Z"/>
      </g>
    </mask>
    <mask id="mask-18" x="43" y="56.6" width="22.2" height="22.2" maskUnits="userSpaceOnUse">
      <g id="path-22-inside-19_10618_21757">
        <path class="st8" d="M45.6,78.4c-1.3,0-2.4-1.1-2.2-2.3.2-2,.7-4,1.5-5.9,1.1-2.6,2.7-5,4.7-7,2-2,4.4-3.6,7-4.7,1.9-.8,3.9-1.3,5.9-1.5,1.3-.1,2.3.9,2.3,2.2v16.8c0,1.3-1.1,2.3-2.3,2.3h-16.8Z"/>
      </g>
    </mask>
    <mask id="mask-19" x="43" y="78" width="22.2" height="22.2" maskUnits="userSpaceOnUse">
      <g id="path-23-inside-20_10618_21757">
        <path class="st8" d="M64.8,97.6c0,1.3-1.1,2.4-2.3,2.2-2-.2-4-.7-5.9-1.5-2.6-1.1-5-2.7-7-4.7-2-2-3.6-4.4-4.7-7-.8-1.9-1.3-3.9-1.5-5.9-.1-1.3.9-2.3,2.2-2.3h16.8c1.3,0,2.3,1.1,2.3,2.3v16.8Z"/>
      </g>
    </mask>
  </defs>
  <circle class="st8" cx="64.8" cy="78.1" r="64.8"/>
  <g class="st10">
    <path class="st13" d="M123.7,78.2c1.7,0,3.1,1.4,3.1,3.1-.4,8.8-2.7,17.4-6.8,25.2-.8,1.5-2.7,2.1-4.2,1.2l-41.1-23.7c-2.8-1.6-1.6-5.8,1.6-5.8h47.4Z"/>
  </g>
  <g class="st3">
    <path class="st13" d="M115.9,48.8c1.5-.9,3.4-.4,4.2,1.2,4,7.8,6.3,16.4,6.8,25.2,0,1.7-1.3,3.1-3.1,3.1h-47.4c-3.2,0-4.3-4.2-1.6-5.8l41.1-23.7Z"/>
  </g>
  <g class="st12">
    <path class="st13" d="M94.3,27c.9-1.5,2.8-2,4.2-1.1,7.4,4.8,13.7,11.1,18.5,18.5.9,1.5.4,3.4-1.1,4.2l-41.1,23.7c-2.8,1.6-5.9-1.5-4.3-4.3l23.7-41.1Z"/>
  </g>
  <g class="st23">
    <path class="st13" d="M64.6,19.1c0-1.7,1.4-3.1,3.1-3.1,8.8.4,17.4,2.7,25.2,6.8,1.5.8,2.1,2.7,1.2,4.2l-23.7,41.1c-1.6,2.8-5.8,1.6-5.8-1.6V19.1Z"/>
  </g>
  <g class="st20">
    <path class="st13" d="M35.1,27c-.9-1.5-.4-3.4,1.2-4.2,7.8-4,16.4-6.3,25.2-6.8,1.7,0,3.1,1.3,3.1,3.1v47.4c0,3.2-4.2,4.3-5.8,1.6l-23.7-41.1Z"/>
  </g>
  <g class="st1">
    <path class="st13" d="M13.3,48.6c-1.5-.9-2-2.8-1.1-4.2,4.8-7.4,11.1-13.7,18.5-18.5,1.5-.9,3.4-.4,4.2,1.1l23.7,41.1c1.6,2.8-1.5,5.9-4.3,4.3L13.3,48.6Z"/>
  </g>
  <g class="st5">
    <path class="st13" d="M5.5,78.3c-1.7,0-3.1-1.4-3.1-3.1.4-8.8,2.7-17.4,6.8-25.2.8-1.5,2.7-2.1,4.2-1.2l41.1,23.7c2.8,1.6,1.6,5.8-1.6,5.8H5.5Z"/>
  </g>
  <g class="st6">
    <path class="st13" d="M13.3,107.7c-1.5.9-3.4.4-4.2-1.2-4-7.8-6.3-16.4-6.8-25.2,0-1.7,1.3-3.1,3.1-3.1h47.4c3.2,0,4.3,4.2,1.6,5.8l-41.1,23.7Z"/>
  </g>
  <g class="st11">
    <path class="st13" d="M35,129.5c-.9,1.5-2.8,2-4.2,1.1-7.4-4.8-13.7-11.1-18.5-18.5-.9-1.5-.4-3.4,1.1-4.2l41.1-23.7c2.8-1.6,5.9,1.5,4.3,4.3l-23.7,41.1Z"/>
  </g>
  <g class="st15">
    <path class="st13" d="M64.6,137.4c0,1.7-1.4,3.1-3.1,3.1-8.8-.4-17.4-2.7-25.2-6.8-1.5-.8-2.1-2.7-1.2-4.2l23.7-41.1c1.6-2.8,5.8-1.6,5.8,1.6v47.4Z"/>
  </g>
  <g class="st4">
    <path class="st13" d="M94.1,129.5c.9,1.5.4,3.4-1.2,4.2-7.8,4-16.4,6.3-25.2,6.8-1.7,0-3.1-1.3-3.1-3.1v-47.4c0-3.2,4.2-4.3,5.8-1.6l23.7,41.1Z"/>
  </g>
  <g class="st18">
    <path class="st13" d="M115.9,107.9c1.5.9,2,2.8,1.1,4.2-4.8,7.4-11.1,13.7-18.5,18.5-1.5.9-3.4.4-4.2-1.1l-23.7-41.1c-1.6-2.8,1.5-5.9,4.3-4.3l41.1,23.7Z"/>
  </g>
  <circle class="st8" cx="64.6" cy="78.3" r="39.9"/>
  <g class="st19">
    <path class="st13" d="M100.6,78.3c1.3,0,2.4,1.1,2.3,2.3-.3,4.2-1.2,8.4-2.8,12.3-1.9,4.7-4.8,8.9-8.3,12.4-3.6,3.6-7.8,6.4-12.5,8.3-3.9,1.6-8.1,2.6-12.3,2.8-1.3,0-2.3-1-2.3-2.3v-33.7c0-1.3,1.1-2.3,2.3-2.3h33.7Z"/>
  </g>
  <g class="st2">
    <path class="st13" d="M64.6,42.2c0-1.3,1.1-2.4,2.3-2.3,4.2.3,8.4,1.2,12.3,2.8,4.7,1.9,8.9,4.8,12.5,8.3,3.6,3.6,6.4,7.8,8.3,12.4,1.6,3.9,2.6,8.1,2.8,12.3,0,1.3-1,2.3-2.3,2.3h-33.7c-1.3,0-2.3-1.1-2.3-2.3v-33.7Z"/>
  </g>
  <g class="st22">
    <path class="st13" d="M28.6,78.3c-1.3,0-2.4-1.1-2.3-2.3.3-4.2,1.2-8.4,2.8-12.3,1.9-4.7,4.8-8.9,8.3-12.4,3.6-3.6,7.8-6.4,12.4-8.3,3.9-1.6,8.1-2.6,12.3-2.8,1.3,0,2.3,1,2.3,2.3v33.7c0,1.3-1.1,2.3-2.3,2.3H28.6Z"/>
  </g>
  <g class="st0">
    <path class="st13" d="M64.6,114.3c0,1.3-1.1,2.4-2.3,2.3-4.2-.3-8.4-1.2-12.3-2.8-4.7-1.9-8.9-4.8-12.4-8.3-3.6-3.6-6.4-7.8-8.3-12.4-1.6-3.9-2.6-8.1-2.8-12.3,0-1.3,1-2.3,2.3-2.3h33.7c1.3,0,2.3,1.1,2.3,2.3v33.7Z"/>
  </g>
  <circle class="st8" cx="64.8" cy="78.4" r="22.7"/>
  <g class="st16">
    <path class="st14" d="M84,78.4c1.3,0,2.4,1.1,2.2,2.3-.2,2-.7,4-1.5,5.9-1.1,2.6-2.7,5-4.7,7-2,2-4.4,3.6-7,4.7-1.9.8-3.9,1.3-5.9,1.5-1.3.1-2.3-.9-2.3-2.2v-16.8c0-1.3,1.1-2.3,2.3-2.3h16.8Z"/>
  </g>
  <g class="st9">
    <path class="st14" d="M64.8,59.3c0-1.3,1.1-2.4,2.3-2.2,2,.2,4,.7,5.9,1.5,2.6,1.1,5,2.7,7,4.7s3.6,4.4,4.7,7c.8,1.9,1.3,3.9,1.5,5.9.1,1.3-.9,2.3-2.2,2.3h-16.8c-1.3,0-2.3-1.1-2.3-2.3v-16.8Z"/>
  </g>
  <g class="st7">
    <path class="st14" d="M45.6,78.4c-1.3,0-2.4-1.1-2.2-2.3.2-2,.7-4,1.5-5.9,1.1-2.6,2.7-5,4.7-7,2-2,4.4-3.6,7-4.7,1.9-.8,3.9-1.3,5.9-1.5,1.3-.1,2.3.9,2.3,2.2v16.8c0,1.3-1.1,2.3-2.3,2.3h-16.8Z"/>
  </g>
  <g class="st17">
    <path class="st14" d="M64.8,97.6c0,1.3-1.1,2.4-2.3,2.2-2-.2-4-.7-5.9-1.5-2.6-1.1-5-2.7-7-4.7-2-2-3.6-4.4-4.7-7-.8-1.9-1.3-3.9-1.5-5.9-.1-1.3.9-2.3,2.2-2.3h16.8c1.3,0,2.3,1.1,2.3,2.3v16.8Z"/>
  </g>
  <path class="st21" d="M71.4,30c-3.1,5.1-10.5,5.1-13.7,0l-10.9-17.9c-3.2-5.3.6-12.2,6.8-12.2h21.8c6.2,0,10.1,6.8,6.8,12.2l-10.9,17.9Z"/>
</svg>