<svg width="156" height="41" viewBox="0 0 156 41" fill="none" xmlns="http://www.w3.org/2000/svg">
<path d="M105.03 11.9765C105.03 11.3895 105.236 10.8906 105.647 10.4796C106.058 10.0687 106.557 9.86328 107.144 9.86328C107.731 9.86328 108.23 10.0687 108.64 10.4796C109.051 10.8906 109.257 11.3895 109.257 11.9765V25.7566C109.257 28.1047 108.425 30.1103 106.762 31.7735C105.099 33.4367 103.093 34.2683 100.745 34.2683C99.3754 34.2683 98.0742 33.9552 96.8415 33.3291C95.6185 32.6932 94.6059 31.8175 93.8037 30.7022C93.471 30.2326 93.3487 29.7092 93.4368 29.132C93.5346 28.5547 93.8233 28.0998 94.3026 27.7672C94.7723 27.4247 95.2957 27.3024 95.8729 27.4003C96.4501 27.4883 96.9051 27.7721 97.2377 28.2514C97.6486 28.8189 98.1622 29.2591 98.7786 29.5722C99.3852 29.8853 100.041 30.0418 100.745 30.0418C101.929 30.0418 102.937 29.6211 103.768 28.7798C104.61 27.9482 105.03 26.9356 105.03 25.742C103.71 26.5149 102.281 26.9013 100.745 26.9013C98.3873 26.9013 96.3768 26.0697 94.7136 24.4065C93.0504 22.7433 92.2188 20.7328 92.2188 18.375V11.9765C92.2188 11.3895 92.4242 10.8906 92.8351 10.4796C93.246 10.0687 93.745 9.86328 94.332 9.86328C94.919 9.86328 95.418 10.0687 95.8289 10.4796C96.2398 10.8906 96.4452 11.3895 96.4452 11.9765V18.375C96.4452 19.5588 96.8659 20.5714 97.7073 21.4127C98.5389 22.2541 99.5515 22.6748 100.745 22.6748C101.929 22.6748 102.937 22.2541 103.768 21.4127C104.61 20.5714 105.03 19.5588 105.03 18.375V11.9765Z" fill="#6C00CB"/>
<path d="M79.8046 15.264H87.5238C88.1108 15.264 88.6098 15.4694 89.0207 15.8803C89.4316 16.2912 89.6371 16.7902 89.6371 17.3772C89.6371 17.9544 89.4316 18.4485 89.0207 18.8594C88.6098 19.2703 88.1108 19.4758 87.5238 19.4758H79.8046V24.7882C79.8046 25.3753 79.5992 25.8742 79.1883 26.2851C78.7773 26.696 78.2784 26.9015 77.6914 26.9015C77.1044 26.9015 76.6054 26.696 76.1945 26.2851C75.7836 25.8742 75.5781 25.3753 75.5781 24.7882V14.5449C75.5781 12.1968 76.4097 10.1912 78.0729 8.52801C79.7361 6.8648 81.7418 6.0332 84.0898 6.0332C85.0877 6.0332 86.1737 6.31203 87.3477 6.8697C88.512 7.43714 89.5001 8.22961 90.3121 9.2471C90.6741 9.69714 90.8209 10.2108 90.7524 10.788C90.6937 11.375 90.4344 11.8495 89.9746 12.2115C89.5246 12.5735 89.006 12.7203 88.419 12.6518C87.8418 12.5833 87.3722 12.324 87.0102 11.874C86.5993 11.3554 86.1003 10.9543 85.5133 10.6706C84.9361 10.3967 84.3637 10.2597 83.7963 10.2597C82.8082 10.2597 81.8983 10.6755 81.0667 11.5071C80.2253 12.3485 79.8046 13.3611 79.8046 14.5449V15.264Z" fill="#6C00CB"/>
<path d="M72.9374 24.7882C72.9374 25.3753 72.732 25.8742 72.3211 26.2851C71.9102 26.696 71.4112 26.9015 70.8242 26.9015C70.2372 26.9015 69.7382 26.696 69.3273 26.2851C68.9164 25.8742 68.7109 25.3753 68.7109 24.7882V13.4442C68.7109 12.867 68.9164 12.3729 69.3273 11.962C69.7382 11.5413 70.2372 11.331 70.8242 11.331C71.4112 11.331 71.9102 11.5413 72.3211 11.962C72.732 12.3729 72.9374 12.867 72.9374 13.4442V24.7882ZM70.8242 6.0332C71.4112 6.0332 71.9102 6.23866 72.3211 6.64957C72.732 7.06047 72.9374 7.55944 72.9374 8.14645C72.9374 8.73346 72.732 9.23242 72.3211 9.64333C71.9102 10.0542 71.4112 10.2597 70.8242 10.2597C70.2372 10.2597 69.7382 10.0542 69.3273 9.64333C68.9164 9.23242 68.7109 8.73346 68.7109 8.14645C68.7109 7.55944 68.9164 7.06047 69.3273 6.64957C69.7382 6.23866 70.2372 6.0332 70.8242 6.0332Z" fill="#6C00CB"/>
<path d="M45.9648 24.7881C45.9648 25.3751 45.7593 25.874 45.3484 26.285C44.9375 26.6959 44.4385 26.9013 43.8515 26.9013C43.2645 26.9013 42.7656 26.6959 42.3546 26.285C41.9437 25.874 41.7383 25.3751 41.7383 24.7881V16.9955C41.7383 15.029 42.4378 13.3462 43.8369 11.9472C45.2261 10.5579 46.9089 9.86328 48.8852 9.86328C50.8419 9.86328 52.5148 10.553 53.9041 11.9325C55.2934 10.553 56.9664 9.86328 58.9231 9.86328C60.8993 9.86328 62.5821 10.5579 63.9714 11.9472C65.3704 13.3462 66.0699 15.029 66.0699 16.9955V24.7881C66.0699 25.3751 65.8645 25.874 65.4536 26.285C65.0427 26.6959 64.5437 26.9013 63.9567 26.9013C63.3697 26.9013 62.8707 26.6959 62.4598 26.285C62.0489 25.874 61.8435 25.3751 61.8435 24.7881V16.9955C61.8435 16.1932 61.5597 15.5084 60.9923 14.9409C60.4248 14.3735 59.7351 14.0898 58.9231 14.0898C58.1208 14.0898 57.436 14.3735 56.8685 14.9409C56.3011 15.5084 56.0174 16.1932 56.0174 16.9955V24.7881C56.0174 25.3751 55.8119 25.874 55.401 26.285C54.9901 26.6959 54.4911 26.9013 53.9041 26.9013C53.3171 26.9013 52.8181 26.6959 52.4072 26.285C51.9963 25.874 51.7909 25.3751 51.7909 24.7881V16.9955C51.7909 16.1932 51.5071 15.5084 50.9397 14.9409C50.3723 14.3735 49.6874 14.0898 48.8852 14.0898C48.0731 14.0898 47.3834 14.3735 46.8159 14.9409C46.2485 15.5084 45.9648 16.1932 45.9648 16.9955V24.7881Z" fill="#6C00CB"/>
<path d="M39.374 24.7881C39.374 25.3751 39.1636 25.874 38.7429 26.285C38.332 26.6959 37.838 26.9013 37.2607 26.9013C36.3411 26.9013 35.6954 26.4806 35.3236 25.6392C33.9539 26.4806 32.4619 26.9013 30.8476 26.9013C28.4996 26.9013 26.4939 26.0697 24.8307 24.4065C23.1675 22.7433 22.3359 20.7377 22.3359 18.3896C22.3359 16.0318 23.1675 14.0213 24.8307 12.3581C26.4939 10.6949 28.4996 9.86328 30.8476 9.86328C33.2054 9.86328 35.216 10.6949 36.8792 12.3581C38.5424 14.0213 39.374 16.0318 39.374 18.3896V24.7881ZM33.8854 15.3518C33.044 14.5105 32.0314 14.0898 30.8476 14.0898C29.6638 14.0898 28.6561 14.5105 27.8245 15.3518C26.9831 16.1932 26.5624 17.2058 26.5624 18.3896C26.5624 19.5734 26.9831 20.586 27.8245 21.4274C28.6561 22.259 29.6638 22.6748 30.8476 22.6748C32.0314 22.6748 33.044 22.259 33.8854 21.4274C34.7268 20.586 35.1475 19.5734 35.1475 18.3896C35.1475 17.2058 34.7268 16.1932 33.8854 15.3518Z" fill="#6C00CB"/>
<path d="M10.4341 18.5806C9.85692 18.5806 9.35796 18.3751 8.93726 17.9642C8.52635 17.5533 8.3209 17.0544 8.3209 16.4673C8.3209 15.8803 8.52635 15.3814 8.93726 14.9705C9.35796 14.5596 9.85692 14.3541 10.4341 14.3541H18.755C19.3421 14.3541 19.841 14.5596 20.2519 14.9705C20.6628 15.3814 20.8683 15.8803 20.8683 16.4673C20.8683 19.3437 19.8508 21.8043 17.8158 23.849C15.7808 25.884 13.3203 26.9015 10.4341 26.9015C7.55778 26.9015 5.09722 25.884 3.05246 23.849C1.01749 21.8043 0 19.3437 0 16.4673C0 13.5812 1.01749 11.1206 3.05246 9.08567C5.09722 7.05069 7.55778 6.0332 10.4341 6.0332C11.8528 6.0332 13.2176 6.31203 14.5286 6.8697C15.8298 7.42736 16.9744 8.21982 17.9626 9.2471C18.3637 9.658 18.5594 10.157 18.5496 10.744C18.5398 11.3212 18.3246 11.8153 17.9039 12.2262C17.4832 12.6273 16.9842 12.823 16.407 12.8132C15.82 12.8034 15.3259 12.5882 14.9248 12.1675C14.3378 11.5511 13.6529 11.0766 12.8702 10.744C12.1071 10.4211 11.2951 10.2597 10.4341 10.2597C8.72203 10.2597 7.25939 10.8663 6.04623 12.0794C4.83307 13.2926 4.22649 14.7552 4.22649 16.4673C4.22649 18.1795 4.83307 19.6421 6.04623 20.8553C7.25939 22.0684 8.72203 22.675 10.4341 22.675C12.156 22.675 13.6236 22.0684 14.8367 20.8553C15.4825 20.1998 15.9618 19.4415 16.2749 18.5806H10.4341Z" fill="#6C00CB"/>
<path d="M154.804 16.5454C154.007 12.1854 151.784 8.2138 148.484 5.2547C145.185 2.29561 140.995 0.516832 136.574 0.197955C133.759 -0.0162097 130.93 0.381654 128.283 1.36424C125.636 2.34682 123.232 3.89082 121.238 5.89017C121.012 6.08632 120.827 6.3261 120.696 6.5952C120.564 6.86429 120.488 7.15717 120.472 7.45633C120.456 7.75549 120.501 8.0548 120.603 8.33635C120.705 8.6179 120.863 8.87593 121.068 9.09499C121.275 9.31781 121.525 9.49553 121.804 9.61706C122.083 9.7386 122.384 9.80133 122.688 9.80133C122.992 9.80133 123.293 9.7386 123.572 9.61706C123.85 9.49553 124.101 9.31781 124.308 9.09499C126.051 7.34326 128.194 6.04234 130.553 5.30466C132.911 4.56699 135.414 4.41474 137.845 4.8611C140.999 5.36561 143.906 6.87775 146.13 9.17142C146.59 9.62442 146.883 10.2208 146.959 10.8622C147.035 11.5036 146.89 12.1517 146.548 12.6997C146.308 13.0888 145.978 13.4147 145.586 13.65C145.194 13.8854 144.752 14.0233 144.295 14.0522C143.857 14.0722 143.42 13.9969 143.014 13.8314C142.608 13.6659 142.243 13.4142 141.943 13.0937C140.873 12.0263 139.563 11.2311 138.123 10.7748C136.682 10.3184 135.153 10.2143 133.664 10.471C131.663 10.7872 129.81 11.7196 128.364 13.1383C126.918 14.557 125.95 16.3914 125.596 18.386C125.233 20.3682 125.49 22.414 126.332 24.2449C127.174 26.0758 128.559 27.6027 130.3 28.6179C132.042 29.6171 134.05 30.0545 136.049 29.8703C138.049 29.6861 139.943 28.8894 141.473 27.5888C141.976 27.164 142.435 26.6892 142.843 26.1716C143.063 25.8805 143.198 25.5336 143.232 25.1699C143.265 24.8063 143.196 24.4406 143.033 24.114C142.87 23.7873 142.618 23.5129 142.307 23.3216C141.996 23.1303 141.638 23.0299 141.273 23.0315H141.214C140.917 23.0391 140.625 23.1108 140.358 23.2418C140.091 23.3727 139.855 23.5597 139.668 23.7901C139.073 24.5056 138.311 25.0635 137.45 25.4143C136.588 25.7651 135.653 25.8979 134.728 25.8012C133.443 25.6612 132.243 25.0895 131.324 24.1795C130.406 23.2696 129.823 22.0751 129.671 20.7911C129.58 19.9953 129.658 19.1893 129.9 18.4258C130.142 17.6623 130.543 16.9585 131.075 16.3606C131.608 15.7627 132.262 15.2841 132.992 14.9562C133.723 14.6283 134.515 14.4585 135.316 14.4579C136.15 14.4574 136.973 14.6411 137.727 14.9959C138.482 15.3506 139.148 15.8677 139.679 16.5102C139.88 16.7443 140.129 16.932 140.409 17.06C140.689 17.1879 140.994 17.2532 141.302 17.2511H147.488C148.212 17.2504 148.918 17.4721 149.511 17.8862C150.846 18.8564 150.687 20.0737 150.634 21.2439C150.099 30.482 141.161 37.3032 132.152 35.3568C129.211 34.7684 126.505 33.3383 124.361 31.2405C124.09 30.9343 123.742 30.7067 123.353 30.5815C122.964 30.4563 122.548 30.4381 122.15 30.529C121.742 30.6299 121.371 30.8432 121.079 31.1448C120.787 31.4463 120.585 31.8238 120.497 32.2343C120.404 32.6227 120.42 33.0294 120.544 33.4092C120.667 33.7891 120.893 34.1273 121.197 34.3866C126.384 39.279 132.482 41.0843 139.456 39.6789C149.788 37.5561 156.768 26.9243 154.804 16.5454Z" fill="url(#paint0_radial_10635_7307)"/>
<path d="M135.332 22.8966C136.849 22.8966 138.078 21.6671 138.078 20.1504C138.078 18.6338 136.849 17.4043 135.332 17.4043C133.815 17.4043 132.586 18.6338 132.586 20.1504C132.586 21.6671 133.815 22.8966 135.332 22.8966Z" fill="#6C00CB"/>
<defs>
<radialGradient id="paint0_radial_10635_7307" cx="0" cy="0" r="1" gradientUnits="userSpaceOnUse" gradientTransform="translate(137.786 20.1416) rotate(90) scale(20 17.3487)">
<stop stop-color="#B700FF"/>
<stop offset="1" stop-color="#6C00CB"/>
</radialGradient>
</defs>
</svg>
