<svg width="24" height="24" viewBox="0 0 24 24" fill="none" xmlns="http://www.w3.org/2000/svg">
<path d="M10.96 3.02972C11.59 2.08993 12.9699 1.64036 14.0498 2.05023C15.2998 2.46023 16.1003 3.84055 15.8203 5.12055L15.3301 8.26996C15.3201 8.33988 15.3199 8.44 15.3896 8.51996C15.4396 8.56993 15.5099 8.6 15.5898 8.60004H19.5898C20.5698 8.60004 21.4199 9.01016 21.9199 9.72015C22.4098 10.41 22.5102 11.3198 22.1904 12.1996L19.7998 19.4799C19.4298 20.9298 17.8902 22.0999 16.2803 22.1H12.4805C11.9205 22.1 10.6998 21.9297 10.0498 21.2797L7.91406 19.6303C7.54847 20.5476 6.71213 21.0004 5.37988 21.0004H4.37988C2.52996 21.0004 1.62988 20.13 1.62988 18.35V8.55023C1.62988 6.77027 2.52996 5.89988 4.37988 5.89984H5.37988C6.8016 5.89984 7.66012 6.41462 7.98242 7.46039L10.96 3.02972ZM13.54 3.46039C13.0502 3.28045 12.4204 3.53994 12.2002 3.8598L8.12988 9.91449V17.8969L11.04 20.1498C11.29 20.3898 11.9205 20.5903 12.4805 20.5903H16.2803C17.1802 20.5901 18.1496 19.8699 18.3496 19.06L20.7695 11.7104C20.9294 11.2706 20.9001 10.8705 20.6904 10.5805C20.4704 10.2705 20.07 10.0903 19.5801 10.0903H15.5801C15.0601 10.0903 14.58 9.86969 14.25 9.48969C13.9102 9.0998 13.76 8.58022 13.8398 8.04047L14.3398 4.83051C14.4598 4.27055 14.08 3.64044 13.54 3.46039ZM4.37988 7.39984C3.28999 7.39986 3.12988 7.66026 3.12988 8.55023V18.35C3.12988 19.24 3.28999 19.5004 4.37988 19.5004H5.37988C6.46988 19.5004 6.62988 19.24 6.62988 18.35V8.55023C6.62988 7.66023 6.46988 7.39984 5.37988 7.39984H4.37988Z" fill="#6C00CB"/>
</svg>
