<svg width="24" height="24" viewBox="0 0 24 24" fill="none" xmlns="http://www.w3.org/2000/svg">
<path d="M14.2189 21.6298C13.0389 21.6298 11.3689 20.7998 10.0489 16.8298L9.32891 14.6698L7.16891 13.9498C3.20891 12.6298 2.37891 10.9598 2.37891 9.77983C2.37891 8.60983 3.20891 6.92983 7.16891 5.59983L15.6589 2.76983C17.7789 2.05983 19.5489 2.26983 20.6389 3.34983C21.7289 4.42983 21.9389 6.20983 21.2289 8.32983L18.3989 16.8198C17.0689 20.7998 15.3989 21.6298 14.2189 21.6298ZM7.63891 7.02983C4.85891 7.95983 3.86891 9.05983 3.86891 9.77983C3.86891 10.4998 4.85891 11.5998 7.63891 12.5198L10.1589 13.3598C10.3789 13.4298 10.5589 13.6098 10.6289 13.8298L11.4689 16.3498C12.3889 19.1298 13.4989 20.1198 14.2189 20.1198C14.9389 20.1198 16.0389 19.1298 16.9689 16.3498L19.7989 7.85983C20.3089 6.31983 20.2189 5.05983 19.5689 4.40983C18.9189 3.75983 17.6589 3.67983 16.1289 4.18983L7.63891 7.02983Z" fill="black"/>
<path d="M10.1108 14.4C9.92078 14.4 9.73078 14.33 9.58078 14.18C9.29078 13.89 9.29078 13.41 9.58078 13.12L13.1608 9.53C13.4508 9.24 13.9308 9.24 14.2208 9.53C14.5108 9.82 14.5108 10.3 14.2208 10.59L10.6408 14.18C10.5008 14.33 10.3008 14.4 10.1108 14.4Z" fill="black"/>
</svg>
