<svg width="40" height="41" viewBox="0 0 40 41" fill="none" xmlns="http://www.w3.org/2000/svg">
<path d="M39.663 16.5454C38.8663 12.1854 36.6434 8.2138 33.3437 5.2547C30.0439 2.29561 25.8545 0.516832 21.4338 0.197955C18.6182 -0.0162097 15.7896 0.381654 13.1423 1.36424C10.495 2.34682 8.09178 3.89082 6.09774 5.89017C5.87129 6.08632 5.68671 6.3261 5.55503 6.5952C5.42336 6.86429 5.34731 7.15717 5.33139 7.45633C5.31548 7.75549 5.36002 8.0548 5.4624 8.33635C5.56477 8.6179 5.72287 8.87593 5.92722 9.09499C6.13417 9.31781 6.38485 9.49553 6.6636 9.61706C6.94235 9.7386 7.24318 9.80133 7.54727 9.80133C7.85137 9.80133 8.1522 9.7386 8.43095 9.61706C8.7097 9.49553 8.96038 9.31781 9.16732 9.09499C10.9104 7.34326 13.0538 6.04234 15.4123 5.30466C17.7708 4.56699 20.2734 4.41474 22.704 4.8611C25.8587 5.36561 28.7655 6.87775 30.9895 9.17142C31.4498 9.62442 31.7421 10.2208 31.818 10.8622C31.8939 11.5036 31.7489 12.1517 31.407 12.6997C31.1671 13.0888 30.8374 13.4147 30.4455 13.65C30.0536 13.8854 29.611 14.0233 29.1548 14.0522C28.7167 14.0722 28.2795 13.9969 27.8734 13.8314C27.4672 13.6659 27.1019 13.4142 26.8026 13.0937C25.7328 12.0263 24.4226 11.2311 22.982 10.7748C21.5413 10.3184 20.0122 10.2143 18.523 10.471C16.522 10.7872 14.6694 11.7196 13.2233 13.1383C11.7772 14.557 10.8095 16.3914 10.4551 18.386C10.0925 20.3682 10.3496 22.414 11.1914 24.2449C12.0331 26.0758 13.4187 27.6027 15.1594 28.6179C16.9013 29.6171 18.909 30.0545 20.9086 29.8703C22.9081 29.6861 24.8022 28.8894 26.3322 27.5888C26.8357 27.164 27.2947 26.6892 27.7023 26.1716C27.9227 25.8805 28.0573 25.5336 28.091 25.1699C28.1246 24.8063 28.0559 24.4406 27.8926 24.114C27.7293 23.7873 27.4779 23.5129 27.1668 23.3216C26.8557 23.1303 26.4974 23.0299 26.1322 23.0315H26.0735C25.7762 23.0391 25.4842 23.1108 25.2173 23.2418C24.9504 23.3727 24.7149 23.5597 24.5269 23.7901C23.9324 24.5056 23.1706 25.0635 22.309 25.4143C21.4474 25.7651 20.5126 25.8979 19.5874 25.8012C18.302 25.6612 17.1021 25.0895 16.1836 24.1795C15.2651 23.2696 14.6823 22.0751 14.5302 20.7911C14.4391 19.9953 14.5172 19.1893 14.7592 18.4258C15.0013 17.6623 15.4019 16.9585 15.9349 16.3606C16.4678 15.7627 17.1211 15.2841 17.8519 14.9562C18.5826 14.6283 19.3744 14.4585 20.1754 14.4579C21.009 14.4574 21.8323 14.6411 22.5866 14.9959C23.3409 15.3506 24.0075 15.8677 24.5386 16.5102C24.7389 16.7443 24.988 16.932 25.2683 17.06C25.5486 17.1879 25.8535 17.2532 26.1616 17.2511H32.3478C33.0713 17.2504 33.7775 17.4721 34.3707 17.8862C35.7055 18.8564 35.5467 20.0737 35.4938 21.2439C34.9587 30.482 26.0205 37.3032 17.0117 35.3568C14.0707 34.7684 11.3639 33.3383 9.22023 31.2405C8.94954 30.9343 8.60139 30.7067 8.21234 30.5815C7.82328 30.4563 7.40767 30.4381 7.00919 30.529C6.60165 30.6299 6.23068 30.8432 5.93853 31.1448C5.64637 31.4463 5.44478 31.8238 5.35681 32.2343C5.26345 32.6227 5.27942 33.0294 5.40293 33.4092C5.52643 33.7891 5.75266 34.1273 6.05657 34.3866C11.2431 39.279 17.3411 41.0843 24.3152 39.6789C34.6471 37.5561 41.6271 26.9243 39.663 16.5454Z" fill="url(#paint0_radial_10635_7301)"/>
<path d="M20.1915 22.8966C21.7081 22.8966 22.9376 21.6671 22.9376 20.1504C22.9376 18.6338 21.7081 17.4043 20.1915 17.4043C18.6748 17.4043 17.4453 18.6338 17.4453 20.1504C17.4453 21.6671 18.6748 22.8966 20.1915 22.8966Z" fill="#6C00CB"/>
<defs>
<radialGradient id="paint0_radial_10635_7301" cx="0" cy="0" r="1" gradientUnits="userSpaceOnUse" gradientTransform="translate(22.6456 20.1416) rotate(90) scale(20 17.3487)">
<stop stop-color="#B700FF"/>
<stop offset="1" stop-color="#6C00CB"/>
</radialGradient>
</defs>
</svg>
