<svg width="134" height="160" viewBox="0 0 134 160" fill="none" xmlns="http://www.w3.org/2000/svg">
<path d="M51.4957 44.7036L51.4957 58.1738C51.4957 59.9527 52.1969 61.6587 53.4449 62.9166C54.6929 64.1744 56.3856 64.8811 58.1506 64.8811C59.9155 64.8811 61.6082 64.1744 62.8562 62.9166C64.1042 61.6587 64.8054 59.9527 64.8054 58.1738L64.8054 45.0744L53.0675 45.0744C52.5223 45.0734 51.9847 44.9466 51.4957 44.7036Z" fill="#6C00CB"/>
<path d="M82.2846 45.0744L82.2846 58.6833C82.2846 60.1698 82.8705 61.5955 83.9134 62.6466C84.9564 63.6978 86.3708 64.2883 87.8457 64.2883C89.3207 64.2883 90.7351 63.6978 91.7781 62.6466C92.821 61.5955 93.4069 60.1699 93.4069 58.6833L93.4069 41.9137C90.8991 43.9609 87.7693 45.0768 84.5421 45.0744L82.2846 45.0744Z" fill="#6C00CB"/>
<path d="M43.3042 31.0669C44.7408 31.0684 46.1518 31.4507 47.3954 32.1755C48.6391 32.9003 49.6717 33.9421 50.3895 35.1963C51.3142 32.8809 52.9042 30.8968 54.9555 29.4986C57.0068 28.1003 59.4258 27.3517 61.9022 27.3488L70.2214 27.3488C68.2198 26.119 66.5654 24.3913 65.4171 22.3315C64.2689 20.2717 63.6652 17.949 63.6641 15.5863L63.6641 11.8026C63.6641 11.535 63.7696 11.2783 63.9574 11.0891C64.1451 10.8999 64.3997 10.7936 64.6652 10.7936C64.9308 10.7936 65.1854 10.8999 65.3731 11.0891C65.5609 11.2783 65.6663 11.535 65.6663 11.8026L65.6663 15.5863C65.6703 18.7047 66.9011 21.6942 69.0889 23.8992C71.2767 26.1042 74.2427 27.3448 77.3367 27.3488L77.5144 27.3488C77.7799 27.3488 78.0345 27.4551 78.2223 27.6443C78.41 27.8335 78.5155 28.0902 78.5155 28.3578C78.5155 28.6254 78.41 28.882 78.2223 29.0712C78.0345 29.2605 77.7799 29.3668 77.5144 29.3668L61.8997 29.3668C59.1416 29.3694 56.4973 30.4747 54.5468 32.4401C52.5963 34.4055 51.4991 37.0705 51.4957 39.8503L51.4957 41.4723C51.4957 41.8924 51.6613 42.2953 51.9561 42.5924C52.2508 42.8895 52.6506 43.0564 53.0675 43.0564L84.5421 43.0564C86.3021 43.0563 88.0409 42.6697 89.6375 41.9235C91.2341 41.1772 92.6502 40.0893 93.7873 38.7354C93.955 38.5361 94.1202 38.3343 94.2728 38.1249C94.3379 38.0391 94.398 37.9509 94.458 37.8727C94.6107 37.6557 94.7584 37.4363 94.896 37.2092C94.9411 37.1361 94.9836 37.0604 95.0262 36.9847C95.1663 36.7325 95.299 36.4954 95.4241 36.2456L95.4842 36.122C95.6243 35.8294 95.7495 35.5318 95.8646 35.2291C95.8796 35.1887 95.8971 35.1509 95.9121 35.1105C96.0248 34.8053 96.1249 34.4925 96.215 34.1772C96.215 34.1368 96.2375 34.0965 96.2475 34.0561C96.3351 33.7383 96.4077 33.4179 96.4678 33.095L96.4903 32.9689C96.5478 32.6435 96.5929 32.3131 96.6229 31.9826C96.6229 31.9448 96.6229 31.9069 96.6229 31.8666C96.6505 31.5235 96.668 31.1805 96.668 30.8349C96.668 30.0024 96.6279 29.1826 96.5629 28.3679C95.3115 12.5139 82.1195 -0.000213009 66.0743 -0.000214412L62.4353 -0.00021473C55.7227 0.00979136 49.2879 2.70165 44.5412 7.48537C39.7944 12.2691 37.123 18.7544 37.1124 25.5199L37.1124 33.93C37.8794 33.0319 38.8296 32.3112 39.8982 31.8171C40.9668 31.323 42.1286 31.0671 43.3042 31.0669Z" fill="#6C00CB"/>
<path d="M66.8076 58.0981C66.8076 59.8991 67.5174 61.6263 68.7809 62.8997C70.0445 64.1732 71.7582 64.8887 73.545 64.8887C75.3319 64.8887 77.0456 64.1732 78.3091 62.8998C79.5726 61.6263 80.2824 59.8991 80.2824 58.0981L80.2824 45.082L66.8076 45.082L66.8076 58.0981Z" fill="#6C00CB"/>
<path d="M43.3042 55.0484C44.9456 55.0464 46.5191 54.3882 47.6794 53.2182C48.8398 52.0482 49.4922 50.462 49.4935 48.8077L49.4935 39.3231C49.461 37.69 48.7944 36.1349 47.637 34.9916C46.4796 33.8483 44.9236 33.2079 43.303 33.2079C41.6824 33.2079 40.1263 33.8483 38.9689 34.9916C37.8115 36.1349 37.145 37.69 37.1124 39.3231L37.1124 48.8077C37.1144 50.4622 37.7674 52.0484 38.9281 53.2183C40.0889 54.3882 41.6627 55.0464 43.3042 55.0484Z" fill="#6C00CB"/>
<path d="M56.9735 118.517H67.0873V107.483C67.0878 106.377 67.3155 105.283 67.7564 104.267C68.1973 103.252 68.8421 102.337 69.6512 101.579L73.5222 82.1634C73.7013 80.6793 73.2887 79.1845 72.3729 77.9999C71.4571 76.8152 70.1111 76.0353 68.624 75.8274C67.1369 75.6195 65.6272 76.0003 64.419 76.888C63.2108 77.7757 62.4004 79.0995 62.1619 80.5753L56.7965 109.2C56.7622 109.44 56.642 109.659 56.458 109.818C56.2741 109.977 56.0387 110.064 55.7952 110.064C55.5517 110.064 55.3164 109.977 55.1324 109.818C54.9485 109.659 54.8283 109.44 54.794 109.2L49.4159 80.4721C49.3113 79.7297 49.0608 79.0149 48.6787 78.3688C48.2967 77.7227 47.7905 77.1578 47.189 76.7064C46.5876 76.255 45.9028 75.9259 45.1736 75.738C44.4444 75.55 43.6852 75.5069 42.9393 75.611C42.1933 75.7151 41.4753 75.9644 40.8262 76.3447C40.1771 76.7251 39.6096 77.2289 39.1561 77.8276C38.7026 78.4262 38.372 79.1079 38.1831 79.8337C37.9943 80.5595 37.951 81.3152 38.0556 82.0577C39.5398 93.0812 40.0044 93.3679 40.8262 99.1112C42.9046 113.656 42.9393 115.556 43.9747 126.004C45.2906 123.73 47.1846 121.841 49.4664 120.527C51.7481 119.213 54.3372 118.519 56.9735 118.517Z" fill="#E9ECEF"/>
<path d="M89.6134 130.801C88.2602 130.801 86.9282 130.466 85.7368 129.827C84.5454 129.189 83.5317 128.266 82.7865 127.142C81.9802 129.291 80.534 131.143 78.6413 132.452C76.7485 133.761 74.4994 134.463 72.1948 134.466H68.1493C69.9982 135.631 71.5213 137.243 72.5773 139.151C73.6333 141.06 74.1879 143.202 74.1898 145.381V148.904C74.1898 149.171 74.0832 149.427 73.8936 149.616C73.7039 149.805 73.4466 149.911 73.1784 149.911C72.9102 149.911 72.6529 149.805 72.4632 149.616C72.2736 149.427 72.167 149.171 72.167 148.904V145.381C72.1603 142.488 71.0014 139.715 68.9443 137.672C66.8873 135.628 64.0999 134.479 61.1935 134.478C60.9253 134.478 60.668 134.372 60.4783 134.183C60.2887 133.994 60.1821 133.738 60.1821 133.471C60.1821 133.204 60.2887 132.948 60.4783 132.76C60.668 132.571 60.9253 132.465 61.1935 132.465H72.1973C74.3966 132.466 76.5241 131.686 78.1974 130.265C79.0242 129.564 79.7223 128.725 80.2606 127.786C81.0206 126.459 81.4352 124.964 81.4667 123.437C81.4667 123.369 81.4667 123.301 81.4667 123.231C81.4641 123.09 81.4497 122.951 81.4237 122.813C81.4237 122.78 81.4237 122.747 81.4237 122.715C81.3026 122.103 80.9723 121.553 80.4892 121.157C80.006 120.761 79.3998 120.544 78.7739 120.543H56.9735C53.5306 120.548 50.2302 121.912 47.7959 124.335C45.3616 126.759 43.992 130.044 43.9873 133.471C43.9873 141.17 46.8976 148.127 52.1796 153.057C54.7762 155.461 57.8388 157.313 61.1796 158.497C64.5205 159.682 68.0692 160.175 71.6082 159.945C85.1582 159.072 95.7752 147.362 95.7752 133.308V128.023C95.0073 128.897 94.0599 129.598 92.997 130.077C91.9341 130.556 90.7803 130.803 89.6134 130.801Z" fill="#E9ECEF"/>
<path d="M89.6134 107.8C87.9791 107.802 86.4123 108.449 85.2567 109.6C84.1011 110.75 83.451 112.309 83.449 113.936V122.574C83.4812 122.788 83.4981 123.004 83.4996 123.221C83.4996 123.271 83.4996 123.324 83.4996 123.374C83.6796 124.93 84.4513 126.359 85.6563 127.367C86.8613 128.375 88.4082 128.885 89.9793 128.793C91.5505 128.701 93.0267 128.014 94.105 126.873C95.1833 125.732 95.7818 124.223 95.7778 122.657V113.934C95.7757 112.307 95.1256 110.748 93.9699 109.598C92.8142 108.448 91.2474 107.802 89.6134 107.8Z" fill="#E9ECEF"/>
<path d="M73.2719 101.684C73.1809 101.715 73.0966 101.747 73.0191 101.783C72.9306 101.818 72.8421 101.853 72.7662 101.893C72.6904 101.934 72.5842 101.976 72.4957 102.022L72.2631 102.145C72.167 102.198 72.0735 102.256 71.9824 102.316C71.8914 102.377 71.8509 102.397 71.7852 102.442C71.7195 102.487 71.5905 102.583 71.497 102.658C71.4413 102.701 71.3857 102.741 71.3326 102.787C70.6415 103.361 70.0854 104.079 69.7035 104.891C69.3217 105.702 69.1235 106.587 69.1228 107.483V118.517H78.7991C79.7446 118.515 80.6685 118.798 81.449 119.33V107.483C81.4472 105.966 80.8808 104.502 79.8592 103.376C78.8377 102.249 77.4332 101.539 75.9167 101.382C75.7076 101.36 75.4975 101.349 75.2871 101.35C75.0912 101.35 74.8954 101.36 74.7005 101.38C74.6221 101.38 74.5437 101.4 74.4679 101.41C74.392 101.42 74.2403 101.44 74.1291 101.463C74.0178 101.486 73.9445 101.503 73.8535 101.523C73.7625 101.544 73.6664 101.569 73.5728 101.596L73.2719 101.684Z" fill="#E9ECEF"/>
</svg>
