<svg width="134" height="160" viewBox="0 0 134 160" fill="none" xmlns="http://www.w3.org/2000/svg">
<path d="M68.2152 56.3911C66.0344 56.3911 64.2093 55.6563 62.7396 54.1867C61.3174 52.6696 60.6063 50.797 60.6063 48.5689C60.6063 46.4356 61.3174 44.6578 62.7396 43.2356C64.2093 41.8133 66.0344 41.1022 68.2152 41.1022C70.3959 41.1022 72.2211 41.8133 73.6907 43.2356C75.1604 44.6578 75.8952 46.4356 75.8952 48.5689C75.8952 50.797 75.1604 52.6696 73.6907 54.1867C72.2211 55.6563 70.3959 56.3911 68.2152 56.3911ZM50.793 16.9244C50.793 13.9378 51.5041 11.1407 52.9263 8.53333C54.3485 5.92593 56.3159 3.86371 58.8285 2.34667C61.3411 0.782223 64.1619 0 67.2907 0C70.467 0 73.2641 0.853334 75.6819 2.56C78.0996 4.26667 79.9722 6.44741 81.2996 9.10222C82.627 11.757 83.3382 14.4593 83.433 17.2089L73.1219 18.4889C73.027 17.0667 72.4819 15.7156 71.4863 14.4356C70.5382 13.1081 69.1396 12.4444 67.2907 12.4444C65.7737 12.4444 64.5174 12.9422 63.5219 13.9378C62.5263 14.9333 62.0285 16.1422 62.0285 17.5644C62.0285 18.4178 62.1233 19.0578 62.313 19.4844C62.55 19.9111 63.0952 20.48 63.9485 21.1911C64.8019 21.8548 66.5559 23.1822 69.2107 25.1733C71.107 26.5481 72.3633 27.923 72.9796 29.2978C73.6433 30.6726 73.9752 32.5452 73.9752 34.9156V38.1156H62.4552V34.2756C61.6019 33.4222 60.4167 32.3319 58.8996 31.0044C56.6715 29.0133 55.0359 27.4489 53.993 26.3111C52.9974 25.1733 52.2152 23.8696 51.6463 22.4C51.0774 20.9304 50.793 19.1052 50.793 16.9244Z" fill="#6C00CB"/>
<rect x="56.4453" y="75.0576" width="49.7778" height="16" rx="8" fill="#E9ECEF"/>
<rect x="28" y="96.3911" width="78.2222" height="16" rx="8" fill="#E9ECEF"/>
<rect x="43.1094" y="117.725" width="63.1111" height="16" rx="8" fill="#E9ECEF"/>
<rect x="28" y="139.058" width="78.2222" height="16" rx="8" fill="#E9ECEF"/>
</svg>
