<svg width="184" height="184" viewBox="0 0 184 184" fill="none" xmlns="http://www.w3.org/2000/svg">
<circle cx="92.1948" cy="91.8042" r="64.8042" fill="white"/>
<mask id="path-2-inside-1_10530_8463" fill="white">
<path d="M151.128 91.9998C152.858 91.9998 154.268 93.4032 154.181 95.131C153.739 103.926 151.435 112.528 147.422 120.367C146.634 121.907 144.711 122.417 143.212 121.552L102.131 97.8455C99.355 96.2434 100.492 91.9998 103.697 91.9998H151.128Z"/>
</mask>
<path d="M151.128 91.9998C152.858 91.9998 154.268 93.4032 154.181 95.131C153.739 103.926 151.435 112.528 147.422 120.367C146.634 121.907 144.711 122.417 143.212 121.552L102.131 97.8455C99.355 96.2434 100.492 91.9998 103.697 91.9998H151.128Z" fill="#DEE2E6" stroke="white" stroke-width="0.783133" mask="url(#path-2-inside-1_10530_8463)"/>
<mask id="path-3-inside-2_10530_8463" fill="white">
<path d="M143.284 62.5142C144.782 61.6492 146.705 62.1592 147.494 63.6991C151.508 71.5371 153.814 80.1384 154.258 88.9332C154.346 90.661 152.935 92.0647 151.205 92.0651L103.774 92.075C100.569 92.0757 99.4316 87.8322 102.207 86.2296L143.284 62.5142Z"/>
</mask>
<path d="M143.284 62.5142C144.782 61.6492 146.705 62.1592 147.494 63.6991C151.508 71.5371 153.814 80.1384 154.258 88.9332C154.346 90.661 152.935 92.0647 151.205 92.0651L103.774 92.075C100.569 92.0757 99.4316 87.8322 102.207 86.2296L143.284 62.5142Z" fill="#DEE2E6" stroke="white" stroke-width="0.783133" mask="url(#path-3-inside-2_10530_8463)"/>
<mask id="path-4-inside-3_10530_8463" fill="white">
<path d="M121.642 40.7175C122.507 39.2192 124.428 38.6992 125.881 39.6385C133.276 44.4195 139.573 50.7155 144.356 58.1097C145.295 59.5624 144.776 61.4832 143.278 62.3486L102.206 86.0726C99.4307 87.6758 96.3239 84.5696 97.9265 81.7938L121.642 40.7175Z"/>
</mask>
<path d="M121.642 40.7175C122.507 39.2192 124.428 38.6992 125.881 39.6385C133.276 44.4195 139.573 50.7155 144.356 58.1097C145.295 59.5624 144.776 61.4832 143.278 62.3486L102.206 86.0726C99.4307 87.6758 96.3239 84.5696 97.9265 81.7938L121.642 40.7175Z" fill="#DEE2E6" stroke="white" stroke-width="0.783133" mask="url(#path-4-inside-3_10530_8463)"/>
<mask id="path-5-inside-4_10530_8463" fill="white">
<path d="M92.0012 32.8737C92.0012 31.1437 93.4046 29.733 95.1325 29.82C103.927 30.2628 112.529 32.5667 120.368 36.579C121.908 37.3672 122.418 39.2906 121.554 40.789L97.8469 81.8703C96.2449 84.6464 92.0012 83.5098 92.0012 80.3046V32.8737Z"/>
</mask>
<path d="M92.0012 32.8737C92.0012 31.1437 93.4046 29.733 95.1325 29.82C103.927 30.2628 112.529 32.5667 120.368 36.579C121.908 37.3672 122.418 39.2906 121.554 40.789L97.8469 81.8703C96.2449 84.6464 92.0012 83.5098 92.0012 80.3046V32.8737Z" fill="#DEE2E6" stroke="white" stroke-width="0.783133" mask="url(#path-5-inside-4_10530_8463)"/>
<mask id="path-6-inside-5_10530_8463" fill="white">
<path d="M62.5142 40.7173C61.6492 39.219 62.1592 37.2956 63.6991 36.507C71.5371 32.4931 80.1384 30.1874 88.9332 29.7427C90.661 29.6553 92.0647 31.0658 92.0651 32.7958L92.075 80.2266C92.0757 83.4319 87.8322 84.5694 86.2296 81.7936L62.5142 40.7173Z"/>
</mask>
<path d="M62.5142 40.7173C61.6492 39.219 62.1592 37.2956 63.6991 36.507C71.5371 32.4931 80.1384 30.1874 88.9332 29.7427C90.661 29.6553 92.0647 31.0658 92.0651 32.7958L92.075 80.2266C92.0757 83.4319 87.8322 84.5694 86.2296 81.7936L62.5142 40.7173Z" fill="#DEE2E6" stroke="white" stroke-width="0.783133" mask="url(#path-6-inside-5_10530_8463)"/>
<mask id="path-7-inside-6_10530_8463" fill="white">
<path d="M40.7175 62.3591C39.2192 61.494 38.6992 59.5733 39.6385 58.1204C44.4195 50.7252 50.7155 44.4279 58.1097 39.6453C59.5624 38.7058 61.4832 39.2254 62.3486 40.7234L86.0726 81.7948C87.6758 84.5703 84.5696 87.6771 81.7938 86.0745L40.7175 62.3591Z"/>
</mask>
<path d="M40.7175 62.3591C39.2192 61.494 38.6992 59.5733 39.6385 58.1204C44.4195 50.7252 50.7155 44.4279 58.1097 39.6453C59.5624 38.7058 61.4832 39.2254 62.3486 40.7234L86.0726 81.7948C87.6758 84.5703 84.5696 87.6771 81.7938 86.0745L40.7175 62.3591Z" fill="#DEE2E6" stroke="white" stroke-width="0.783133" mask="url(#path-7-inside-6_10530_8463)"/>
<mask id="path-8-inside-7_10530_8463" fill="white">
<path d="M32.8723 92.0002C31.1422 92.0002 29.7315 90.5968 29.8185 88.869C30.2614 80.0741 32.5652 71.4724 36.5775 63.6335C37.3658 62.0934 39.2891 61.583 40.7875 62.4477L81.8688 86.1545C84.645 87.7566 83.5084 92.0002 80.3031 92.0002L32.8723 92.0002Z"/>
</mask>
<path d="M32.8723 92.0002C31.1422 92.0002 29.7315 90.5968 29.8185 88.869C30.2614 80.0741 32.5652 71.4724 36.5775 63.6335C37.3658 62.0934 39.2891 61.583 40.7875 62.4477L81.8688 86.1545C84.645 87.7566 83.5084 92.0002 80.3031 92.0002L32.8723 92.0002Z" fill="#DEE2E6" stroke="white" stroke-width="0.783133" mask="url(#path-8-inside-7_10530_8463)"/>
<mask id="path-9-inside-8_10530_8463" fill="white">
<path d="M40.7163 121.486C39.218 122.351 37.2946 121.841 36.506 120.301C32.4921 112.463 30.1864 103.862 29.7417 95.0668C29.6544 93.339 31.0648 91.9353 32.7948 91.9349L80.2257 91.925C83.4309 91.9243 84.5684 96.1678 81.7926 97.7704L40.7163 121.486Z"/>
</mask>
<path d="M40.7163 121.486C39.218 122.351 37.2946 121.841 36.506 120.301C32.4921 112.463 30.1864 103.862 29.7417 95.0668C29.6544 93.339 31.0648 91.9353 32.7948 91.9349L80.2257 91.925C83.4309 91.9243 84.5684 96.1678 81.7926 97.7704L40.7163 121.486Z" fill="#DEE2E6" stroke="white" stroke-width="0.783133" mask="url(#path-9-inside-8_10530_8463)"/>
<mask id="path-10-inside-9_10530_8463" fill="white">
<path d="M62.3581 143.283C61.4931 144.781 59.5723 145.301 58.1194 144.361C50.7243 139.581 44.4269 133.284 39.6444 125.89C38.7048 124.438 39.2244 122.517 40.7225 121.651L81.7938 97.9274C84.5693 96.3242 87.6761 99.4304 86.0735 102.206L62.3581 143.283Z"/>
</mask>
<path d="M62.3581 143.283C61.4931 144.781 59.5723 145.301 58.1194 144.361C50.7243 139.581 44.4269 133.284 39.6444 125.89C38.7048 124.438 39.2244 122.517 40.7225 121.651L81.7938 97.9274C84.5693 96.3242 87.6761 99.4304 86.0735 102.206L62.3581 143.283Z" fill="#DEE2E6" stroke="white" stroke-width="0.783133" mask="url(#path-10-inside-9_10530_8463)"/>
<mask id="path-11-inside-10_10530_8463" fill="white">
<path d="M91.9988 151.126C91.9988 152.856 90.5954 154.267 88.8675 154.18C80.0726 153.737 71.4709 151.433 63.632 147.421C62.092 146.633 61.5815 144.709 62.4463 143.211L86.1531 102.13C87.7551 99.3536 91.9988 100.49 91.9988 103.695L91.9988 151.126Z"/>
</mask>
<path d="M91.9988 151.126C91.9988 152.856 90.5954 154.267 88.8675 154.18C80.0726 153.737 71.4709 151.433 63.632 147.421C62.092 146.633 61.5815 144.709 62.4463 143.211L86.1531 102.13C87.7551 99.3536 91.9988 100.49 91.9988 103.695L91.9988 151.126Z" fill="#DEE2E6" stroke="white" stroke-width="0.783133" mask="url(#path-11-inside-10_10530_8463)"/>
<mask id="path-12-inside-11_10530_8463" fill="white">
<path d="M121.486 143.283C122.351 144.781 121.841 146.704 120.301 147.493C112.463 151.507 103.862 153.813 95.0668 154.257C93.339 154.345 91.9353 152.934 91.9349 151.204L91.925 103.773C91.9243 100.568 96.1678 99.4306 97.7704 102.206L121.486 143.283Z"/>
</mask>
<path d="M121.486 143.283C122.351 144.781 121.841 146.704 120.301 147.493C112.463 151.507 103.862 153.813 95.0668 154.257C93.339 154.345 91.9353 152.934 91.9349 151.204L91.925 103.773C91.9243 100.568 96.1678 99.4306 97.7704 102.206L121.486 143.283Z" fill="#DEE2E6" stroke="white" stroke-width="0.783133" mask="url(#path-12-inside-11_10530_8463)"/>
<mask id="path-13-inside-12_10530_8463" fill="white">
<path d="M143.283 121.641C144.781 122.506 145.301 124.427 144.361 125.88C139.581 133.275 133.284 139.572 125.89 144.355C124.438 145.294 122.517 144.775 121.651 143.277L97.9274 102.205C96.3242 99.4297 99.4304 96.3229 102.206 97.9255L143.283 121.641Z"/>
</mask>
<path d="M143.283 121.641C144.781 122.506 145.301 124.427 144.361 125.88C139.581 133.275 133.284 139.572 125.89 144.355C124.438 145.294 122.517 144.775 121.651 143.277L97.9274 102.205C96.3242 99.4297 99.4304 96.3229 102.206 97.9255L143.283 121.641Z" fill="#DEE2E6" stroke="white" stroke-width="0.783133" mask="url(#path-13-inside-12_10530_8463)"/>
<circle cx="91.9984" cy="91.9998" r="39.9398" fill="white"/>
<mask id="path-15-inside-13_10530_8463" fill="white">
<path d="M128.023 92C129.32 92 130.379 93.0528 130.3 94.3479C130.04 98.5842 129.079 102.754 127.451 106.685C125.523 111.341 122.696 115.571 119.133 119.134C115.569 122.697 111.339 125.524 106.683 127.452C102.752 129.081 98.5827 130.042 94.3464 130.302C93.0513 130.381 91.9985 129.322 91.9985 128.024L91.9985 94.3493C91.9985 93.0518 93.0504 92 94.3479 92H128.023Z"/>
</mask>
<path d="M128.023 92C129.32 92 130.379 93.0528 130.3 94.3479C130.04 98.5842 129.079 102.754 127.451 106.685C125.523 111.341 122.696 115.571 119.133 119.134C115.569 122.697 111.339 125.524 106.683 127.452C102.752 129.081 98.5827 130.042 94.3464 130.302C93.0513 130.381 91.9985 129.322 91.9985 128.024L91.9985 94.3493C91.9985 93.0518 93.0504 92 94.3479 92H128.023Z" fill="#DEE2E6" stroke="white" stroke-width="0.783133" mask="url(#path-15-inside-13_10530_8463)"/>
<mask id="path-16-inside-14_10530_8463" fill="white">
<path d="M91.9985 55.9759C91.9985 54.6784 93.0513 53.6191 94.3464 53.6984C98.5827 53.9581 102.752 54.9192 106.683 56.5476C111.339 58.476 115.569 61.3026 119.133 64.8659C122.696 68.4292 125.523 72.6595 127.451 77.3151C129.079 81.2463 130.04 85.4158 130.3 89.6521C130.379 90.9472 129.32 92 128.023 92L94.3479 92C93.0503 92 91.9985 90.9482 91.9985 89.6506V55.9759Z"/>
</mask>
<path d="M91.9985 55.9759C91.9985 54.6784 93.0513 53.6191 94.3464 53.6984C98.5827 53.9581 102.752 54.9192 106.683 56.5476C111.339 58.476 115.569 61.3026 119.133 64.8659C122.696 68.4292 125.523 72.6595 127.451 77.3151C129.079 81.2463 130.04 85.4158 130.3 89.6521C130.379 90.9472 129.32 92 128.023 92L94.3479 92C93.0503 92 91.9985 90.9482 91.9985 89.6506V55.9759Z" fill="#DEE2E6" stroke="white" stroke-width="0.783133" mask="url(#path-16-inside-14_10530_8463)"/>
<mask id="path-17-inside-15_10530_8463" fill="white">
<path d="M55.9735 92C54.676 92 53.6166 90.9472 53.696 89.6521C53.9557 85.4158 54.9168 81.2463 56.5451 77.3151C58.4736 72.6595 61.3001 68.4292 64.8634 64.8659C68.4268 61.3026 72.657 58.476 77.3127 56.5476C81.2439 54.9192 85.4134 53.9581 89.6497 53.6984C90.9448 53.6191 91.9976 54.6784 91.9976 55.976L91.9976 89.6507C91.9976 90.9482 90.9457 92 89.6482 92H55.9735Z"/>
</mask>
<path d="M55.9735 92C54.676 92 53.6166 90.9472 53.696 89.6521C53.9557 85.4158 54.9168 81.2463 56.5451 77.3151C58.4736 72.6595 61.3001 68.4292 64.8634 64.8659C68.4268 61.3026 72.657 58.476 77.3127 56.5476C81.2439 54.9192 85.4134 53.9581 89.6497 53.6984C90.9448 53.6191 91.9976 54.6784 91.9976 55.976L91.9976 89.6507C91.9976 90.9482 90.9457 92 89.6482 92H55.9735Z" fill="#DEE2E6" stroke="white" stroke-width="0.783133" mask="url(#path-17-inside-15_10530_8463)"/>
<mask id="path-18-inside-16_10530_8463" fill="white">
<path d="M91.9976 128.024C91.9976 129.322 90.9448 130.381 89.6497 130.302C85.4134 130.042 81.2439 129.081 77.3127 127.452C72.657 125.524 68.4268 122.697 64.8635 119.134C61.3001 115.571 58.4736 111.341 56.5451 106.685C54.9168 102.754 53.9557 98.5842 53.696 94.3479C53.6166 93.0528 54.676 92 55.9735 92L89.6482 92C90.9457 92 91.9976 93.0518 91.9976 94.3494L91.9976 128.024Z"/>
</mask>
<path d="M91.9976 128.024C91.9976 129.322 90.9448 130.381 89.6497 130.302C85.4134 130.042 81.2439 129.081 77.3127 127.452C72.657 125.524 68.4268 122.697 64.8635 119.134C61.3001 115.571 58.4736 111.341 56.5451 106.685C54.9168 102.754 53.9557 98.5842 53.696 94.3479C53.6166 93.0528 54.676 92 55.9735 92L89.6482 92C90.9457 92 91.9976 93.0518 91.9976 94.3494L91.9976 128.024Z" fill="#DEE2E6" stroke="white" stroke-width="0.783133" mask="url(#path-18-inside-16_10530_8463)"/>
<circle cx="92.1796" cy="92.1884" r="22.7108" fill="white"/>
<mask id="path-20-inside-17_10530_8463" fill="white">
<path d="M111.367 92.1885C112.665 92.1885 113.73 93.2434 113.589 94.5332C113.367 96.5566 112.859 98.5422 112.077 100.43C110.995 103.043 109.409 105.417 107.409 107.417C105.409 109.417 103.035 111.003 100.422 112.085C98.5344 112.867 96.5487 113.375 94.5254 113.597C93.2356 113.738 92.1807 112.673 92.1807 111.375L92.1807 94.5379C92.1807 93.2403 93.2325 92.1885 94.5301 92.1885H111.367Z"/>
</mask>
<path d="M111.367 92.1885C112.665 92.1885 113.73 93.2434 113.589 94.5332C113.367 96.5566 112.859 98.5422 112.077 100.43C110.995 103.043 109.409 105.417 107.409 107.417C105.409 109.417 103.035 111.003 100.422 112.085C98.5344 112.867 96.5487 113.375 94.5254 113.597C93.2356 113.738 92.1807 112.673 92.1807 111.375L92.1807 94.5379C92.1807 93.2403 93.2325 92.1885 94.5301 92.1885H111.367Z" fill="#E9ECEF" stroke="white" stroke-width="0.783133" mask="url(#path-20-inside-17_10530_8463)"/>
<mask id="path-21-inside-18_10530_8463" fill="white">
<path d="M92.1807 73.0017C92.1807 71.7042 93.2356 70.6391 94.5254 70.7803C96.5487 71.002 98.5344 71.5097 100.422 72.2917C103.035 73.374 105.409 74.9603 107.409 76.9601C109.409 78.9599 110.995 81.3341 112.077 83.9469C112.859 85.8347 113.367 87.8204 113.589 89.8437C113.73 91.1335 112.665 92.1885 111.367 92.1885L94.5301 92.1885C93.2325 92.1885 92.1807 91.1366 92.1807 89.8391L92.1807 73.0017Z"/>
</mask>
<path d="M92.1807 73.0017C92.1807 71.7042 93.2356 70.6391 94.5254 70.7803C96.5487 71.002 98.5344 71.5097 100.422 72.2917C103.035 73.374 105.409 74.9603 107.409 76.9601C109.409 78.9599 110.995 81.3341 112.077 83.9469C112.859 85.8347 113.367 87.8204 113.589 89.8437C113.73 91.1335 112.665 92.1885 111.367 92.1885L94.5301 92.1885C93.2325 92.1885 92.1807 91.1366 92.1807 89.8391L92.1807 73.0017Z" fill="#E9ECEF" stroke="white" stroke-width="0.783133" mask="url(#path-21-inside-18_10530_8463)"/>
<mask id="path-22-inside-19_10530_8463" fill="white">
<path d="M72.992 92.1885C71.6944 92.1885 70.6293 91.1335 70.7706 89.8437C70.9922 87.8204 71.5 85.8347 72.2819 83.9469C73.3642 81.3341 74.9505 78.9599 76.9503 76.9601C78.9502 74.9603 81.3243 73.374 83.9372 72.2917C85.8249 71.5097 87.8106 71.002 89.8339 70.7803C91.1238 70.6391 92.1787 71.7042 92.1787 73.0017L92.1787 89.8391C92.1787 91.1366 91.1268 92.1885 89.8293 92.1885H72.992Z"/>
</mask>
<path d="M72.992 92.1885C71.6944 92.1885 70.6293 91.1335 70.7706 89.8437C70.9922 87.8204 71.5 85.8347 72.2819 83.9469C73.3642 81.3341 74.9505 78.9599 76.9503 76.9601C78.9502 74.9603 81.3243 73.374 83.9372 72.2917C85.8249 71.5097 87.8106 71.002 89.8339 70.7803C91.1238 70.6391 92.1787 71.7042 92.1787 73.0017L92.1787 89.8391C92.1787 91.1366 91.1268 92.1885 89.8293 92.1885H72.992Z" fill="#E9ECEF" stroke="white" stroke-width="0.783133" mask="url(#path-22-inside-19_10530_8463)"/>
<mask id="path-23-inside-20_10530_8463" fill="white">
<path d="M92.1787 111.375C92.1787 112.673 91.1238 113.738 89.8339 113.597C87.8106 113.375 85.8249 112.867 83.9372 112.085C81.3243 111.003 78.9502 109.417 76.9503 107.417C74.9505 105.417 73.3642 103.043 72.2819 100.43C71.5 98.5422 70.9922 96.5566 70.7706 94.5332C70.6293 93.2434 71.6944 92.1885 72.992 92.1885L89.8293 92.1885C91.1268 92.1885 92.1787 93.2403 92.1787 94.5379V111.375Z"/>
</mask>
<path d="M92.1787 111.375C92.1787 112.673 91.1238 113.738 89.8339 113.597C87.8106 113.375 85.8249 112.867 83.9372 112.085C81.3243 111.003 78.9502 109.417 76.9503 107.417C74.9505 105.417 73.3642 103.043 72.2819 100.43C71.5 98.5422 70.9922 96.5566 70.7706 94.5332C70.6293 93.2434 71.6944 92.1885 72.992 92.1885L89.8293 92.1885C91.1268 92.1885 92.1787 93.2403 92.1787 94.5379V111.375Z" fill="#E9ECEF" stroke="white" stroke-width="0.783133" mask="url(#path-23-inside-20_10530_8463)"/>
<path d="M98.8331 43.7768C95.7161 48.8964 88.2839 48.8964 85.1669 43.7768L74.289 25.9103C71.0431 20.5791 74.8806 13.75 81.1221 13.75L102.878 13.75C109.119 13.75 112.957 20.5792 109.711 25.9103L98.8331 43.7768Z" fill="#6C00CB"/>
</svg>
