<svg width="108" height="160" viewBox="0 0 108 160" fill="none" xmlns="http://www.w3.org/2000/svg">
<g clip-path="url(#clip0_10618_21833)">
<rect x="16.5703" width="77.8182" height="160" rx="17.7778" fill="#E9ECEF"/>
<path d="M21.0938 20C21.0938 11.7157 27.8095 5 36.0938 5H74.0938C82.378 5 89.0938 11.7157 89.0938 20V46H21.0938V20Z" fill="white"/>
<path d="M21.0938 114H89.0938V140C89.0938 148.284 82.378 155 74.0937 155H36.0937C27.8095 155 21.0938 148.284 21.0938 140V114Z" fill="white"/>
<rect x="21.293" y="51" width="68" height="58" fill="white"/>
<path d="M29.7345 71.6854C35.028 74.7722 35.028 82.4204 29.7345 85.5072L11.9275 95.8908C6.59424 99.0008 -0.102405 95.1538 -0.102405 88.98L-0.102405 68.2126C-0.102405 62.0388 6.59422 58.1918 11.9275 61.3017L29.7345 71.6854Z" fill="#6C00CB"/>
<path d="M78.4491 85.507C73.1556 82.4202 73.1556 74.772 78.4491 71.6852L96.2561 61.3015C101.589 58.1916 108.286 62.0386 108.286 68.2124L108.286 88.9798C108.286 95.1536 101.589 99.0006 96.2561 95.8907L78.4491 85.507Z" fill="#6C00CB"/>
</g>
<defs>
<clipPath id="clip0_10618_21833">
<rect width="108" height="160" fill="white"/>
</clipPath>
</defs>
</svg>
