<svg width="24" height="24" viewBox="0 0 24 24" fill="none" xmlns="http://www.w3.org/2000/svg">
<path d="M5.58984 1.25024C5.9798 1.25024 6.37975 1.34027 6.71973 1.50024C7.10965 1.68021 7.4397 1.94993 7.67969 2.30981L10 5.58032C10.2099 5.87023 10.3705 6.15001 10.4805 6.42993C10.6104 6.72975 10.6796 7.02974 10.6797 7.31958C10.6797 7.69958 10.5704 8.07017 10.3604 8.42017C10.2104 8.69007 9.98028 8.97988 9.69043 9.26978L9.00977 9.97974C9.01977 10.0097 9.03004 10.03 9.04004 10.05C9.16006 10.2601 9.40043 10.6205 9.86035 11.1604C10.35 11.72 10.8098 12.2297 11.2695 12.6995C11.8595 13.2794 12.3496 13.7404 12.8096 14.1204C13.3792 14.6001 13.7497 14.8394 13.9697 14.9495L13.9502 15.0002L14.6797 14.2795C14.9897 13.9696 15.2901 13.7401 15.5801 13.5901C16.1301 13.2501 16.8303 13.1897 17.5303 13.4797C17.7902 13.5897 18.0702 13.7396 18.3701 13.9495L21.6904 16.3098C22.0603 16.5598 22.3303 16.8801 22.4902 17.26C22.6402 17.64 22.71 17.9901 22.71 18.3401C22.7099 18.82 22.5996 19.3003 22.3896 19.7502C22.1797 20.2 21.9197 20.5896 21.5898 20.9495C21.0198 21.5795 20.3997 22.0296 19.6797 22.3196C18.9898 22.5995 18.2401 22.7502 17.4502 22.7502C16.3203 22.7502 15.1302 22.4801 13.9004 21.9602C12.7004 21.4502 11.4896 20.7497 10.3096 19.8997C9.13972 19.0397 8.0103 18.0794 6.94043 17.0295C5.88052 15.9596 4.92026 14.8301 4.07031 13.6702C3.21031 12.4702 2.52027 11.2696 2.03027 10.1096C1.51037 8.86981 1.25005 7.67013 1.25 6.54028C1.25 5.76039 1.39023 5.02024 1.66016 4.33032C1.94016 3.62032 2.39 2.95989 3 2.38989C3.76995 1.62995 4.64991 1.25029 5.58984 1.25024ZM5.58984 2.75024C5.0399 2.75029 4.52999 2.99002 4.04004 3.46997C3.58004 3.89997 3.25957 4.37013 3.05957 4.88013C2.84966 5.40003 2.75 5.9504 2.75 6.54028C2.75006 7.47016 2.97023 8.47993 3.41016 9.51978C3.86012 10.5797 4.49012 11.6796 5.29004 12.7795C6.09004 13.8795 7 14.9502 8 15.9602C8.99996 16.9502 10.0805 17.87 11.1904 18.6799C12.2703 19.4698 13.3806 20.1096 14.4805 20.5696C16.1904 21.2995 17.7904 21.4701 19.1104 20.9202C19.6203 20.7102 20.0705 20.3899 20.4805 19.9299C20.7103 19.68 20.8901 19.4099 21.04 19.0901C21.16 18.8401 21.2197 18.5796 21.2197 18.3196C21.2197 18.1597 21.1903 17.9994 21.1104 17.8196C21.0803 17.7595 21.0199 17.6497 20.8301 17.5198L17.5098 15.1604C17.3098 15.0204 17.13 14.9199 16.96 14.8499C16.74 14.7599 16.6495 14.6701 16.3096 14.8801C16.1098 14.9801 15.9303 15.1305 15.7305 15.3303L14.9697 16.0803C14.5797 16.46 13.9794 16.5501 13.5195 16.3801L13.25 16.26C12.8401 16.04 12.36 15.7002 11.8301 15.2502C11.3501 14.8402 10.8302 14.3595 10.2002 13.7395C9.7103 13.2396 9.21985 12.7102 8.70996 12.1204C8.24012 11.5705 7.90045 11.1001 7.69043 10.7102L7.57031 10.4104C7.51038 10.1807 7.49028 10.0502 7.49023 9.9104C7.49023 9.5504 7.62012 9.22974 7.87012 8.97974L8.62012 8.19946C8.81997 7.99957 8.97036 7.80981 9.07031 7.63989C9.1502 7.51002 9.17966 7.39997 9.17969 7.30005C9.17969 7.22005 9.14961 7.09974 9.09961 6.97974C9.0296 6.81981 8.92018 6.63934 8.78027 6.44946L6.45996 3.17017C6.35996 3.03017 6.23984 2.92962 6.08984 2.85962C5.92992 2.78969 5.75976 2.75024 5.58984 2.75024ZM13.9502 15.01L13.79 15.6897L14.0596 14.9895C14.0099 14.9797 13.9701 14.9901 13.9502 15.01ZM15 4.75024C15.97 4.75024 16.9899 5.26999 17.8799 6.21997C18.7099 7.10997 19.25 8.20024 19.25 9.00024C19.2498 9.4101 18.9099 9.75024 18.5 9.75024C18.0901 9.75024 17.7502 9.4101 17.75 9.00024C17.75 8.64028 17.3899 7.8902 16.79 7.25024C16.2 6.62024 15.55 6.25024 15 6.25024C14.5901 6.25024 14.2502 5.9101 14.25 5.50024C14.25 5.09024 14.59 4.75024 15 4.75024ZM15 1.25024C19.27 1.25024 22.75 4.73024 22.75 9.00024C22.7498 9.4101 22.4099 9.75024 22 9.75024C21.5901 9.75024 21.2502 9.4101 21.25 9.00024C21.25 5.55024 18.45 2.75024 15 2.75024C14.5901 2.75024 14.2502 2.4101 14.25 2.00024C14.25 1.59024 14.59 1.25024 15 1.25024Z" fill="white"/>
</svg>
