<svg width="25" height="24" viewBox="0 0 25 24" fill="none" xmlns="http://www.w3.org/2000/svg">
<path d="M22.5 11.2502C22.9142 11.2502 23.25 11.586 23.25 12.0002C23.2498 17.9343 18.4341 22.7502 12.5 22.7502C9.4797 22.7502 7.0848 21.2298 5.48145 19.7756C5.05557 19.3894 4.68145 19.0025 4.36035 18.6438V21.4407C4.35995 21.8544 4.02416 22.1905 3.61035 22.1907C3.19639 22.1907 2.86075 21.8545 2.86035 21.4407V16.4407C2.86035 16.0265 3.19614 15.6907 3.61035 15.6907H8.12988L8.20703 15.6946C8.58502 15.7332 8.87988 16.0525 8.87988 16.4407C8.87951 16.8286 8.58484 17.1482 8.20703 17.1868L8.12988 17.1907H5.08887C5.44952 17.629 5.91938 18.1474 6.48926 18.6643C7.95089 19.99 10.0006 21.2502 12.5 21.2502C17.6057 21.2502 21.7498 17.1059 21.75 12.0002C21.75 11.586 22.0858 11.2502 22.5 11.2502ZM12.5 1.25024C16.0576 1.25024 18.7216 2.7363 20.4814 4.20435C20.9731 4.61448 21.3957 5.02525 21.75 5.40356V2.55981C21.7502 2.1458 22.0859 1.80981 22.5 1.80981C22.9141 1.80981 23.2498 2.1458 23.25 2.55981V7.55981C23.2498 7.97388 22.9141 8.30981 22.5 8.30981H18.0596C17.6457 8.30958 17.3097 7.97374 17.3096 7.55981C17.3098 7.14594 17.6457 6.81005 18.0596 6.80981H20.9971C20.624 6.37753 20.1319 5.86579 19.5205 5.35571C17.9479 4.04391 15.612 2.75024 12.5 2.75024C7.35617 2.75024 3.25 6.8925 3.25 12.0002C3.24983 12.4143 2.91411 12.7502 2.5 12.7502C2.08589 12.7502 1.75017 12.4143 1.75 12.0002C1.75 6.06799 6.52383 1.25024 12.5 1.25024Z" fill="#6C00CB"/>
</svg>
