<svg width="24" height="24" viewBox="0 0 24 24" fill="none" xmlns="http://www.w3.org/2000/svg">
<g clip-path="url(#clip0_10531_8689)">
<path d="M11.3477 4.64993L10.1677 7.00992C9.61923 8.09809 8.73588 8.98145 7.64771 9.52994L5.3477 10.6499C5.15273 10.7345 4.98674 10.8742 4.87013 11.0519C4.75353 11.2295 4.69141 11.4374 4.69141 11.6499C4.69141 11.8624 4.75353 12.0703 4.87013 12.248C4.98674 12.4257 5.15273 12.5654 5.3477 12.6499L7.5377 13.7499C8.73505 14.3389 9.67959 15.3403 10.1977 16.5699L11.3877 19.3299C11.4723 19.5249 11.612 19.6909 11.7896 19.8075C11.9673 19.9241 12.1752 19.9862 12.3877 19.9862C12.6002 19.9862 12.8081 19.9241 12.9858 19.8075C13.1634 19.6909 13.3031 19.5249 13.3877 19.3299L14.5777 16.5699C15.0958 15.3403 16.0404 14.3389 17.2377 13.7499L19.3477 12.6499C19.5427 12.5654 19.7087 12.4257 19.8253 12.248C19.9419 12.0703 20.004 11.8624 20.004 11.6499C20.004 11.4374 19.9419 11.2295 19.8253 11.0519C19.7087 10.8742 19.5427 10.7345 19.3477 10.6499L16.9877 9.46994C15.8995 8.92146 15.0162 8.03809 14.4677 6.94992L13.3477 4.64993C13.2631 4.45496 13.1234 4.28897 12.9458 4.17236C12.7681 4.05576 12.5602 3.99365 12.3477 3.99365C12.1352 3.99365 11.9273 4.05576 11.7496 4.17236C11.572 4.28897 11.4323 4.45496 11.3477 4.64993Z" fill="black"/>
</g>
<defs>
<clipPath id="clip0_10531_8689">
<rect width="15.3" height="15.97" fill="white" transform="translate(4.69922 4)"/>
</clipPath>
</defs>
</svg>
